<svg xmlns="http://www.w3.org/2000/svg" width="25" height="15.563" viewBox="0 0 25 15.563">
    <defs>
        <style>.a{fill:currentColor;}</style>
    </defs>
    <path class="a" d="M23.975,13.95a2.427,2.427,0,0,0-.775-1.763,2.544,2.544,0,0,0-1.725-.6,2.3,2.3,0,0,0-1.737.637,2.989,2.989,0,0,0-.775,1.725m7.938-.288a13.316,13.316,0,0,1,.1,2.212H18.875a2.694,2.694,0,0,0,1.175,2.35,2.871,2.871,0,0,0,1.612.425,2.352,2.352,0,0,0,1.587-.513,2.189,2.189,0,0,0,.625-.775H26.85a3.535,3.535,0,0,1-1.1,2.025,5.283,5.283,0,0,1-4.175,1.625,6.2,6.2,0,0,1-3.95-1.375,5.494,5.494,0,0,1-1.675-4.463,5.962,5.962,0,0,1,1.537-4.437,5.349,5.349,0,0,1,3.988-1.55,6.292,6.292,0,0,1,2.612.525,4.445,4.445,0,0,1,1.925,1.65,5.4,5.4,0,0,1,.888,2.3M11.475,16.2a1.688,1.688,0,0,0-.988-1.675,4.638,4.638,0,0,0-1.562-.287H5.588v4.175H8.875a3.6,3.6,0,0,0,1.575-.275A1.95,1.95,0,0,0,11.475,16.2M5.588,11.688H8.875a3.042,3.042,0,0,0,1.65-.388,1.448,1.448,0,0,0,.625-1.362A1.424,1.424,0,0,0,10.325,8.5a5.909,5.909,0,0,0-1.837-.238h-2.9m8.563,5.875a4.143,4.143,0,0,1,.6,2.275,4.728,4.728,0,0,1-.688,2.487,4.236,4.236,0,0,1-2.863,2,10.914,10.914,0,0,1-2.187.212H2V5.55H9.5c1.912.037,3.25.562,4.037,1.662a3.959,3.959,0,0,1,.712,2.375,3.478,3.478,0,0,1-.712,2.288,3.825,3.825,0,0,1-1.187.888,3.539,3.539,0,0,1,1.8,1.375M24.575,7.762H18.313V6.2h6.262Z" transform="translate(-2 -5.55)"/>
</svg>