<svg xmlns="http://www.w3.org/2000/svg" width="84" height="84" viewBox="0 0 84 84"><path d="M80.063,58.3V11.566a5.01,5.01,0,0,0-5-5H63.164V4.922a4.922,4.922,0,1,0-9.844,0V6.563H26.742V4.922a4.922,4.922,0,0,0-9.844,0V6.563H5a5.01,5.01,0,0,0-5,5V72.434a5.01,5.01,0,0,0,5,5H27.366a1.641,1.641,0,0,0,0-3.281H5a1.725,1.725,0,0,1-1.723-1.723V11.566A1.725,1.725,0,0,1,5,9.844H16.9v1.641a4.922,4.922,0,0,0,9.844,0V9.844H53.32v1.641a4.922,4.922,0,1,0,9.844,0V9.844H75.059a1.725,1.725,0,0,1,1.723,1.723v8.121H14.766a1.641,1.641,0,0,0,0,3.281H76.781V55.525a15.336,15.336,0,0,0-4.594-1.941V29.2a1.641,1.641,0,0,0-1.641-1.641H9.516A1.641,1.641,0,0,0,7.875,29.2V67.922a1.641,1.641,0,0,0,1.641,1.641H53.189A15.307,15.307,0,0,0,54.2,74.156H40.491a1.641,1.641,0,0,0,0,3.281H55.962a15.416,15.416,0,1,0,24.1-19.14Zm-56.6-46.813a1.641,1.641,0,0,1-3.281,0V4.922a1.641,1.641,0,0,1,3.281,0Zm36.422,0a1.641,1.641,0,1,1-3.281,0V4.922a1.641,1.641,0,1,1,3.281,0Zm8.7,41.672a15.486,15.486,0,0,0-2.246.164H59.981V43.8h8.925V53.16C68.8,53.158,68.688,53.156,68.578,53.156ZM53.327,66.281H47.775V56.6H56.7v2.152A15.363,15.363,0,0,0,53.327,66.281ZM11.156,43.8h8.925V53.32H11.156Zm12.206,0h8.925V53.32H23.362Zm24.413,0H56.7V53.32H47.775ZM44.494,53.32H35.569V43.8h8.925Zm3.281-12.8v-9.68H56.7v9.68Zm-3.281,0H35.569v-9.68h8.925Zm-12.206,0H23.362v-9.68h8.925Zm0,16.078v9.68H23.362V56.6Zm3.281,0h8.925v9.68H35.569V56.6ZM68.906,40.523H59.981v-9.68h8.925Zm-48.825-9.68v9.68H11.156v-9.68ZM11.156,56.6h8.925v9.68H11.156ZM68.578,80.719A12.141,12.141,0,1,1,80.719,68.578,12.154,12.154,0,0,1,68.578,80.719Z"/><path d="M395.333,391.315l-5.091,5.091-2.265-2.265a1.646,1.646,0,1,0-2.328,2.328l3.429,3.429a1.646,1.646,0,0,0,2.328,0l6.255-6.255a1.646,1.646,0,1,0-2.328-2.328Z" transform="translate(-322.045 -326.779)"/><path d="M198.446,452a1.647,1.647,0,1,0,1.164.482A1.659,1.659,0,0,0,198.446,452Z" transform="translate(-164.517 -377.877)"/><path d="M42.81,122.81a1.645,1.645,0,1,0-1.164.482A1.658,1.658,0,0,0,42.81,122.81Z" transform="translate(-33.415 -100.315)"/></svg>