<svg xmlns="http://www.w3.org/2000/svg" width="54" height="60" viewBox="0 0 54 60"><g transform="translate(-0.039 0)"><path d="M171.769,356.76a1,1,0,0,0-1,1v1a3.982,3.982,0,0,0,7,2.617,3.982,3.982,0,0,0,7-2.617v-1a1,1,0,1,0-2,0v1a2,2,0,1,1-4,0v-3.187a2.476,2.476,0,0,0,.93-.608l1.5-1.6a2,2,0,0,0,.407-2.19,2.492,2.492,0,0,0-2.335-1.412h-3a2.491,2.491,0,0,0-2.335,1.412,2,2,0,0,0,.406,2.19l1.5,1.6a2.471,2.471,0,0,0,.929.608v3.187a2,2,0,1,1-4,0v-1A1,1,0,0,0,171.769,356.76Zm4-4.786c.012-.047.162-.213.5-.213h3c.341,0,.49.166.468.237l-1.5,1.6a.8.8,0,0,1-.938,0Zm0,0" transform="translate(-150.729 -308.778)"/><path d="M112.395,301.155c1.779-.7,3.2-.778,4.212-.241a3.108,3.108,0,0,1,1.446,1.869,1,1,0,0,0,1.954-.424,5.113,5.113,0,0,0-2.432-3.194c-1.556-.837-3.542-.794-5.908.128a1,1,0,1,0,.729,1.863Zm0,0" transform="translate(-97.988 -263.584)"/><path d="M265.428,303.535a1,1,0,0,0,1.186-.77,3.082,3.082,0,0,1,1.425-1.851c1.016-.548,2.44-.469,4.232.23a1,1,0,0,0,.729-1.863c-2.365-.923-4.352-.966-5.908-.129a5.113,5.113,0,0,0-2.432,3.2,1,1,0,0,0,.768,1.187Zm0,0" transform="translate(-233.6 -263.574)"/><path d="M1.046,38.983a22.181,22.181,0,0,1,2.722.171,17.14,17.14,0,0,0-.723,4.829v.009A10.137,10.137,0,0,0,.491,45.15,1,1,0,1,0,1.6,46.814a7.47,7.47,0,0,1,1.607-.774,12.869,12.869,0,0,0,1.033,3.513,7.116,7.116,0,0,0-3.195,5.428c0,3.083,3.064,5,8,5a10.391,10.391,0,0,0,6.3-1.661A39.166,39.166,0,0,0,27.039,59.98a39.161,39.161,0,0,0,11.691-1.661,10.391,10.391,0,0,0,6.3,1.661c4.933,0,8-1.915,8-5a7.115,7.115,0,0,0-3.195-5.428A12.869,12.869,0,0,0,50.87,46.04a7.484,7.484,0,0,1,1.607.774,1,1,0,1,0,1.109-1.664,10.137,10.137,0,0,0-2.554-1.159v-.009a17.107,17.107,0,0,0-.723-4.829,22.271,22.271,0,0,1,2.722-.171,1,1,0,1,0,0-2,24.431,24.431,0,0,0-3.41.241,22.183,22.183,0,0,0-1.487-2.983c.658-2.135,3.234-11.118,1.013-14.182a2.485,2.485,0,0,0-2.084-1.073,10.509,10.509,0,0,0-4.246,1.26c-2.558-3.616-7.068-6.156-12.208-6.972a18.07,18.07,0,0,0-.51-4.042,3.039,3.039,0,0,1,1.067-2.964c1.247-.84,3.284.46,4.1,1.057a3,3,0,1,0,3.539-4.844C33.319-1.535,29.3.3,27.819,1.279a9,9,0,0,0-3.542,9.365,12.2,12.2,0,0,1,.343,2.474C19,13.715,14,16.357,11.262,20.239a10.483,10.483,0,0,0-4.218-1.253A2.493,2.493,0,0,0,4.956,20.06c-2.212,3.051.351,12.008,1.007,14.14a22.3,22.3,0,0,0-1.508,3.023,24.481,24.481,0,0,0-3.409-.24,1,1,0,1,0,0,2Zm2,16c0-2.25,2.768-5,6-5s6,2.749,6,5c0,1.455-1.345,2.291-3.089,2.695a2.97,2.97,0,0,0,.09-.7v-2a1,1,0,1,0-2,0v2a1,1,0,0,1-2,0v-2a1,1,0,1,0-2,0v2a2.97,2.97,0,0,0,.09.7C4.39,57.272,3.045,56.436,3.045,54.981Zm47.986,0c0,1.455-1.345,2.291-3.088,2.695a3,3,0,0,0,.089-.7v-2a1,1,0,1,0-2,0v2a1,1,0,0,1-2,0v-2a1,1,0,1,0-2,0v2a2.97,2.97,0,0,0,.089.7c-1.744-.4-3.089-1.239-3.089-2.695,0-2.25,2.768-5,6-5S51.032,52.731,51.032,54.981ZM26.219,10.168a6.941,6.941,0,0,1,2.71-7.226c1.4-.924,4.382-2,8.7,1.153a1,1,0,0,1-1.18,1.615C33.963,3.9,31.692,3.5,30.053,4.606a5.025,5.025,0,0,0-1.9,5.1,16.12,16.12,0,0,1,.456,3.343c-.521-.036-1.045-.06-1.573-.06-.142,0-.282.01-.423.012A14.167,14.167,0,0,0,26.219,10.168Zm.819,4.818c5.828,0,11.188,2.407,14,6.2-1.34.758-2.819,1.7-4.456,2.846a23.31,23.31,0,0,0-19.062-.009c-1.646-1.148-3.13-2.088-4.472-2.845C15.848,17.39,21.205,14.986,27.039,14.986ZM8,34.024C6.171,28.412,5.53,22.676,6.574,21.235a.513.513,0,0,1,.47-.249,9.679,9.679,0,0,1,4.02,1.386c.009.005.013.014.022.02a1,1,0,0,0,.1.043,51.318,51.318,0,0,1,5.647,3.557,1,1,0,0,0,1,.088,21.347,21.347,0,0,1,18.421.009A1,1,0,0,0,37.266,26c4.477-3.186,8.049-5.014,9.8-5.014a.509.509,0,0,1,.464.247c1.05,1.448.405,7.2-1.435,12.83a1,1,0,0,0,.1.841A20.64,20.64,0,0,1,47.609,37.6a17.663,17.663,0,0,0-6.174,2.586,1,1,0,0,0,1.2,1.6,16.45,16.45,0,0,1,5.692-2.293,15.422,15.422,0,0,1,.689,3.992,29.075,29.075,0,0,0-4.978-.5,1,1,0,1,0,0,2,27.869,27.869,0,0,1,4.9.524,10.981,10.981,0,0,1-.852,3.079,8.1,8.1,0,0,0-3.052-.6c-4.5,0-8,3.762-8,7a4.07,4.07,0,0,0,.345,1.664A38.028,38.028,0,0,1,27.039,57.98,38.033,38.033,0,0,1,16.7,56.645a4.07,4.07,0,0,0,.345-1.664c0-3.237-3.493-7-8-7a8.1,8.1,0,0,0-3.052.6,10.981,10.981,0,0,1-.852-3.079,27.874,27.874,0,0,1,4.9-.524,1,1,0,0,0,0-2,29.071,29.071,0,0,0-4.978.5,15.4,15.4,0,0,1,.688-3.992,16.44,16.44,0,0,1,5.692,2.292,1,1,0,0,0,1.2-1.6A17.658,17.658,0,0,0,6.467,37.6,20.623,20.623,0,0,1,7.9,34.865,1,1,0,0,0,8,34.024Zm0,0" transform="translate(0 0)"/></g></svg>