<svg height="90" viewBox="0 0 80 90" width="80" xmlns="http://www.w3.org/2000/svg"><path d="m276.371 152h-28.4a1.972 1.972 0 1 0 0 3.944h28.4a1.972 1.972 0 0 0 0-3.944z" transform="translate(-209.781 -125.414)"/><path d="m351.307 200.579a1.971 1.971 0 1 0 .578 1.394 1.987 1.987 0 0 0 -.578-1.394z" transform="translate(-290.722 -165.019)"/><path d="m249.357 43.579a1.971 1.971 0 1 0 .578 1.394 1.987 1.987 0 0 0 -.578-1.394z" transform="translate(-207.965 -34.521)"/><path d="m259.781 200h-11.808a1.972 1.972 0 1 0 0 3.944h11.808a1.972 1.972 0 1 0 0-3.944z" transform="translate(-208.288 -165.018)"/><path d="m276.371 260h-28.4a1.972 1.972 0 0 0 0 3.944h28.4a1.972 1.972 0 0 0 0-3.944z" transform="translate(-209.781 -214.523)"/><path d="m351.307 308.579a1.971 1.971 0 1 0 .578 1.394 1.987 1.987 0 0 0 -.578-1.394z" transform="translate(-290.722 -254.129)"/><path d="m259.781 308h-11.808a1.972 1.972 0 0 0 0 3.944h11.808a1.972 1.972 0 1 0 0-3.944z" transform="translate(-208.288 -254.128)"/><path d="m276.371 368h-28.4a1.972 1.972 0 1 0 0 3.944h28.4a1.972 1.972 0 0 0 0-3.944z" transform="translate(-209.781 -303.633)"/><path d="m351.307 416.579a1.971 1.971 0 1 0 .578 1.394 1.987 1.987 0 0 0 -.578-1.394z" transform="translate(-290.722 -344.933)"/><path d="m259.781 416h-11.808a1.972 1.972 0 1 0 0 3.944h11.808a1.972 1.972 0 1 0 0-3.944z" transform="translate(-208.288 -344.932)"/><path d="m114.8 6.856h-14.41a12.022 12.022 0 0 0 -8-2.988h-1.65a7.806 7.806 0 0 0 -13.479 0h-1.661a12.021 12.021 0 0 0 -8 2.988h-14.4c-5.073 0-9.2 3.845-9.2 8.571v66c0 4.728 4.128 8.573 9.2 8.573h61.6c5.073 0 9.2-3.845 9.2-8.571v-66c0-4.729-4.126-8.573-9.2-8.573zm-39.2.527h2.941a1.871 1.871 0 0 0 1.819-1.29 3.854 3.854 0 0 1 7.273 0 1.871 1.871 0 0 0 1.819 1.29h2.937a7.643 7.643 0 0 1 7.8 6.68h-32.389a7.643 7.643 0 0 1 7.8-6.68zm44.623 74.047a5.256 5.256 0 0 1 -5.426 5.055h-61.597a5.256 5.256 0 0 1 -5.426-5.055v-66a5.256 5.256 0 0 1 5.426-5.059h11.764a10.122 10.122 0 0 0 -.964 4.307v1.142a1.826 1.826 0 0 0 1.887 1.758h36.223a1.826 1.826 0 0 0 1.89-1.758v-1.142a10.123 10.123 0 0 0 -.963-4.307h11.763a5.256 5.256 0 0 1 5.426 5.055z" transform="translate(-44.001)"/><path d="m122.448 147.245a1.972 1.972 0 0 0 -2.789 0l-8.433 8.433-2.6-2.6a1.972 1.972 0 0 0 -2.789 2.789l3.992 3.992a1.972 1.972 0 0 0 2.789 0l9.827-9.827a1.972 1.972 0 0 0 .003-2.787z" transform="translate(-93.18 -121.382)"/><path d="m121.439 368h-9.466a1.972 1.972 0 0 0 -1.973 1.972v9.466a1.972 1.972 0 0 0 1.972 1.972h9.466a1.972 1.972 0 0 0 1.972-1.972v-9.466a1.972 1.972 0 0 0 -1.971-1.972zm-1.972 9.466h-5.522v-5.522h5.522z" transform="translate(-97.656 -306.398)"/><path d="m121.439 260h-9.466a1.972 1.972 0 0 0 -1.973 1.972v9.466a1.972 1.972 0 0 0 1.972 1.972h9.466a1.972 1.972 0 0 0 1.972-1.972v-9.466a1.972 1.972 0 0 0 -1.971-1.972zm-1.972 9.466h-5.522v-5.522h5.522z" transform="translate(-97.656 -215.15)"/></svg>