<svg height="84" viewBox="0 0 68 84" width="68" xmlns="http://www.w3.org/2000/svg"><path d="m330.4 224.289a1.235 1.235 0 0 0 -1.235 1.235v2.05a1.235 1.235 0 1 0 2.47 0v-2.05a1.235 1.235 0 0 0 -1.235-1.235z" transform="translate(-281.287 -187.499)"/><path d="m169.076 224.289a1.235 1.235 0 0 0 -1.235 1.235v2.05a1.235 1.235 0 1 0 2.47 0v-2.05a1.235 1.235 0 0 0 -1.235-1.235z" transform="translate(-150.184 -187.499)"/><path d="m131.613 47.41c.142.006 9.962-.016 9.962-8.386 0-4.121-3.391-7.555-7.845-8.26a24.656 24.656 0 0 0 .9-7.9 16.575 16.575 0 0 0 -9.553-14.472c-2.4-3.8-6.7-6.447-12.462-7.672a37.262 37.262 0 0 0 -16.2.375 25.086 25.086 0 0 0 -12.698 7.705 20.338 20.338 0 0 0 -5.249 12.444 24.431 24.431 0 0 1 -1.223 7.056 4.059 4.059 0 0 0 .408 3.521 8.172 8.172 0 0 0 -4.078 6.884c0 8.743 9.736 8.391 9.836 8.388a20.081 20.081 0 0 0 2.4 4.172 1.6 1.6 0 0 0 1.932.369 1.146 1.146 0 0 0 .42-1.7 18.448 18.448 0 0 1 -3.649-10.924v-5.045a60.28 60.28 0 0 0 17.7-4.672 55.166 55.166 0 0 0 9.047-5.045c2.538 2.326 10.009 8.357 19.381 8.522v6.243a19.026 19.026 0 0 1 -6.777 14.338 25.253 25.253 0 0 1 -31.987.5 1.535 1.535 0 0 0 -1.976.061 1.13 1.13 0 0 0 .07 1.739 26.181 26.181 0 0 0 4.9 3.173l-5.759 2.385c-6.09 2.523-10.025 7.981-10.025 13.906v3.93c0 2.731 2.524 4.953 5.627 4.953h45.716c3.1 0 5.627-2.222 5.627-4.953v-3.93c0-5.925-3.935-11.383-10.025-13.906l-5.747-2.381a24.077 24.077 0 0 0 11.327-11.418zm1.824-8.4v-5.791a6.181 6.181 0 0 1 5.343 5.8c0 3.122-2.753 5.686-6.234 5.915a20.167 20.167 0 0 0 .89-5.921zm-57.065-.305a5.848 5.848 0 0 1 3.3-5.1 5.644 5.644 0 0 0 2.041.544v4.862a20.081 20.081 0 0 0 .8 5.6c-3.437-.262-6.142-2.811-6.142-5.903zm24.528-11.585a57.762 57.762 0 0 1 -18.526 4.58 2.462 2.462 0 0 1 -2.033-.748 1.864 1.864 0 0 1 -.423-1.926 26.608 26.608 0 0 0 1.344-7.7 18.035 18.035 0 0 1 4.669-11.026 22.234 22.234 0 0 1 11.248-6.841 34.722 34.722 0 0 1 8.31-1c6.894 0 13.719 2.06 16.958 6.841a45.182 45.182 0 0 1 -9.031 10.063 51.984 51.984 0 0 1 -12.516 7.757zm17.369-.834a34.747 34.747 0 0 1 -4.836-3.612q1.02-.779 2-1.6a48.054 48.054 0 0 0 9.135-10.074 13.962 13.962 0 0 1 7.265 11.911 22.644 22.644 0 0 1 -.86 7.4 25.064 25.064 0 0 1 -12.708-4.025zm-10.69 35.491a29.263 29.263 0 0 0 5.341-.489 7.217 7.217 0 0 1 -10.7-.006 29.146 29.146 0 0 0 5.355.495zm2.9 5.833-2.1 2.447a1.085 1.085 0 0 1 -1.593 0l-2.1-2.447 2.9-1.334zm-15.927 13.929h-9.835a2.681 2.681 0 0 1 -2.831-2.492v-3.93c0-4.976 3.305-9.56 8.42-11.679l1.107-.458a44.268 44.268 0 0 1 3.139 18.559zm.611-16.356c-.453-1.4-.887-2.507-1.206-3.257l4.173-1.726q.319.111.642.214a7.787 7.787 0 0 0 4.776 4.94l-2.206 1.014a5.366 5.366 0 0 1 -5.588-.688zm6.021 16.356h-3.834a45.774 45.774 0 0 0 -1.182-12.739 8.588 8.588 0 0 0 5.98-.047l1.7 1.978c-1.958 3.25-2.555 7.442-2.664 10.808zm2.8 0a21.039 21.039 0 0 1 1.969-8.993 4.29 4.29 0 0 0 3.253 0 21.04 21.04 0 0 1 1.969 8.993zm20.864-18.1c5.115 2.119 8.42 6.7 8.42 11.679v3.93a2.681 2.681 0 0 1 -2.831 2.492h-16.471c-.109-3.367-.707-7.558-2.665-10.811l1.7-1.977a8.612 8.612 0 0 0 5.986.045 46.735 46.735 0 0 0 -1.218 9.089 1.31 1.31 0 0 0 1.356 1.266h.042a1.329 1.329 0 0 0 1.4-1.194 44.5 44.5 0 0 1 3.173-14.978zm-3.65-1.512c-.318.749-.75 1.853-1.2 3.253l-.6.5a5.366 5.366 0 0 1 -5.588.688l-2.2-1.011a7.745 7.745 0 0 0 4.766-4.935q.329-.105.655-.217z" transform="translate(-73.575)"/><path d="m232.152 232.518a3.161 3.161 0 0 0 -2.307-.764h-5.562a3.161 3.161 0 0 0 -2.308.764 2.242 2.242 0 0 0 -.614 1.665c.108 5.958 2.186 9.375 5.7 9.375s5.6-3.417 5.7-9.375a2.242 2.242 0 0 0 -.609-1.665zm-5.088 8.57a2.547 2.547 0 0 1 -2.264-1.688 4.913 4.913 0 0 1 4.529 0 2.547 2.547 0 0 1 -2.266 1.688zm2.98-4.09a7.453 7.453 0 0 0 -5.959 0 19.33 19.33 0 0 1 -.251-2.743c.095-.016 6.367-.016 6.462 0a19.325 19.325 0 0 1 -.253 2.745z" transform="translate(-193.063 -193.753)"/><path d="m136.964 58.107a1.235 1.235 0 0 0 -1.746-.038 17.171 17.171 0 0 0 -5.406 11.637 1.235 1.235 0 1 0 2.468.084 14.474 14.474 0 0 1 4.646-9.937 1.235 1.235 0 0 0 .038-1.746z" transform="translate(-119.156 -48.222)"/></svg>