<svg xmlns="http://www.w3.org/2000/svg" width="27.329" height="24.652" viewBox="0 0 27.329 24.652">
  <g id="Group_1615" data-name="Group 1615" transform="translate(-255.098 230.974) rotate(-45)">
    <path id="Path_5596" data-name="Path 5596" d="M27.1,4.713H2.357A2.364,2.364,0,0,1,0,2.357H0A2.364,2.364,0,0,1,2.357,0H27.1a2.364,2.364,0,0,1,2.357,2.357h0A2.364,2.364,0,0,1,27.1,4.713Z" transform="translate(343.115 51.331) rotate(-90)" fill="#74e4ff"/>
    <path id="Path_64" data-name="Path 64" d="M31.1,15.713H6.357A2.364,2.364,0,0,1,4,13.357H4A2.364,2.364,0,0,1,6.357,11H31.1a2.364,2.364,0,0,1,2.357,2.357h0A2.364,2.364,0,0,1,31.1,15.713Z" transform="translate(326.869 23.371)" fill="#74e4ff"/>
    <path id="Path_67" data-name="Path 67" d="M28.1,13.713H3.357A2.364,2.364,0,0,1,1,11.357H1A2.364,2.364,0,0,1,3.357,9H28.1a2.364,2.364,0,0,1,2.357,2.357h0A2.364,2.364,0,0,1,28.1,13.713Z" transform="translate(328 23.014)" fill="#e61860"/>
    <g id="Group_1616" data-name="Group 1616" transform="translate(346.061 19.414) rotate(90)">
      <path id="Path_65" data-name="Path 65" d="M27.1,4.713H2.357A2.364,2.364,0,0,1,0,2.357H0A2.364,2.364,0,0,1,2.357,0H27.1a2.364,2.364,0,0,1,2.357,2.357h0A2.364,2.364,0,0,1,27.1,4.713Z" transform="translate(0)" fill="#e61860"/>
    </g>
  </g>
</svg>
