<svg xmlns="http://www.w3.org/2000/svg" width="84" height="84" viewBox="0 0 84 84"><g transform="translate(-0.001)"><path d="M84,36.658c0-5.022-4.6-9.1-10.11-8.692a28.885,28.885,0,0,0-3.966-7.775,1.23,1.23,0,0,0-2,1.433,26.072,26.072,0,0,1,4.455,10.305c-3.585-4.543-8.377-7.87-14.155-7.275-9.168.943-12.248-4.049-15.357-7.131a1.23,1.23,0,0,0-1.733,0c-3.037,3.012-6.145,8.08-15.357,7.131-5.778-.6-10.569,2.731-14.154,7.272C14.123,18.857,26.793,8.882,42,8.882A32.314,32.314,0,0,1,64.1,17.3a1.231,1.231,0,1,0,1.673-1.8C56.635,7.021,43.6,4.6,32.3,7.732A12.09,12.09,0,0,0,20.867,0,11.943,11.943,0,0,0,8.714,11.693a11.616,11.616,0,0,0,4.814,9.316,28.8,28.8,0,0,0-3.41,6.958C4.585,27.552,0,31.649,0,36.658a8.374,8.374,0,0,0,2.6,6.027,4.19,4.19,0,0,0,.109,3.908l2.407,4.323a4.45,4.45,0,0,0,7.809-.061,28.793,28.793,0,0,0,10.7,9.539,30.466,30.466,0,0,0-2.819,2.163,2.856,2.856,0,0,0-.349,3.946,26.753,26.753,0,0,0-4.321,8.52,6.993,6.993,0,0,0,3.937,8.394,1.23,1.23,0,1,0,.982-2.256,4.53,4.53,0,0,1-2.561-5.433,24.3,24.3,0,0,1,3.888-7.691,33.946,33.946,0,0,1,10.36,13.5H26.41a1.23,1.23,0,0,0,0,2.461H61.137a7.03,7.03,0,0,0,6.711-9.1,26.762,26.762,0,0,0-4.292-8.406,2.855,2.855,0,0,0-.36-3.932,30.422,30.422,0,0,0-2.82-2.163,28.837,28.837,0,0,0,10.7-9.539l.034.062a4.449,4.449,0,0,0,7.775,0l2.407-4.323a4.191,4.191,0,0,0,.109-3.908A8.374,8.374,0,0,0,84,36.658ZM11.175,11.693a9.481,9.481,0,0,1,9.692-9.232,9.643,9.643,0,0,1,9.084,6.012A33.224,33.224,0,0,0,14.977,19.024,9.012,9.012,0,0,1,11.175,11.693ZM2.462,36.658c0-3.44,3.1-6.3,6.971-6.259a27.4,27.4,0,0,0-.471,9.9H6.408a4.222,4.222,0,0,0-2.142.576A5.929,5.929,0,0,1,2.462,36.658ZM10.74,49.72a1.988,1.988,0,0,1-3.475,0L4.858,45.4a1.772,1.772,0,0,1,1.55-2.637H9.424a25.355,25.355,0,0,0,2.062,5.62ZM35.391,81.539A35.69,35.69,0,0,0,22.469,65.048a.4.4,0,0,1-.048-.631,28.524,28.524,0,0,1,3.812-2.773,37.39,37.39,0,0,0,6.383,2.064,64.544,64.544,0,0,1,3.851,17.833H35.391Zm.035-17.293a43.418,43.418,0,0,0,13.149,0c-.207.6-.413,1.235-.615,1.891-2.387,2.4-4.392,3.628-5.959,3.628s-3.572-1.222-5.959-3.627C35.84,65.481,35.634,64.849,35.427,64.246Zm9.646,17.293H38.929a59.508,59.508,0,0,0-1.72-11.144c3.427,2.434,6.153,2.436,9.583,0a59.536,59.536,0,0,0-1.72,11.144Zm20.421-5.927a4.571,4.571,0,0,1-4.357,5.927H51.261A33.944,33.944,0,0,1,61.634,68.028,24.316,24.316,0,0,1,65.493,75.612Zm-3.912-11.2a.4.4,0,0,1-.048.631A35.691,35.691,0,0,0,48.611,81.539H47.535a64.538,64.538,0,0,1,3.851-17.833,37.4,37.4,0,0,0,6.383-2.064A28.473,28.473,0,0,1,61.582,64.416Zm2.311-9.277c-6.028,4.9-14,7.146-21.892,7.146-16.625,0-30.625-9.949-30.822-25.312,3.093-5.405,8.17-10.506,14.347-9.871A17.486,17.486,0,0,0,36,25.3a23.093,23.093,0,0,0,6-5.126l.29.313c2.528,2.735,6.229,6.741,13.784,6.741a23.445,23.445,0,0,0,2.4-.127c6.2-.638,11.278,4.508,14.347,9.871A23.474,23.474,0,0,1,63.893,55.139ZM79.144,45.4,76.737,49.72a1.988,1.988,0,0,1-3.475,0l-.746-1.341a25.346,25.346,0,0,0,2.062-5.62h3.015a1.772,1.772,0,0,1,1.55,2.637Zm.592-4.523a4.223,4.223,0,0,0-2.142-.576H75.04a27.469,27.469,0,0,0-.469-9.9c3.8-.033,6.969,2.754,6.969,6.26A5.93,5.93,0,0,1,79.735,40.874Zm-52.512-7.1A1.23,1.23,0,0,0,25.993,35v2.84a1.23,1.23,0,1,0,2.461,0V35A1.23,1.23,0,0,0,27.223,33.772Zm29.555,0A1.23,1.23,0,0,0,55.548,35v2.84a1.23,1.23,0,1,0,2.461,0V35A1.23,1.23,0,0,0,56.778,33.772ZM60.1,76.217H58.206a1.23,1.23,0,1,0,0,2.461H60.1a1.23,1.23,0,0,0,0-2.461ZM46.705,36.83a1.231,1.231,0,0,0-1.736.119,3.933,3.933,0,0,1-5.937,0,1.23,1.23,0,1,0-1.855,1.617,6.394,6.394,0,0,0,9.647,0,1.231,1.231,0,0,0-.119-1.736Z"/></g></svg>