<svg xmlns="http://www.w3.org/2000/svg" width="25" height="25" viewBox="0 0 25 25">
    <defs>
        <style>.a{fill:currentColor;}</style>
    </defs>
    <path class="a" d="M20.025,22.525c-.525-2.4-1.15-4.613-1.775-6.562a13.865,13.865,0,0,1,1.975-.138h.025a17.479,17.479,0,0,1,3.825.462,9.735,9.735,0,0,1-4.05,6.237M14.5,24.25a9.648,9.648,0,0,1-5.8-1.925,14.2,14.2,0,0,1,2.275-2.775,13.319,13.319,0,0,1,5.062-3.075,49.143,49.143,0,0,1,1.925,7.138,9.525,9.525,0,0,1-3.462.637M4.75,14.5v-.137c.275.012.638.012,1.063.012h.012a30.938,30.938,0,0,0,8.85-1.262c.187.413.375.837.562,1.288a15.647,15.647,0,0,0-5.5,3.225A18.355,18.355,0,0,0,7.05,20.75a9.63,9.63,0,0,1-2.3-6.25m5.438-8.75a30.377,30.377,0,0,1,3.488,5.313,27.74,27.74,0,0,1-7.7,1.087H5.813c-.3,0-.562,0-.775-.012a9.752,9.752,0,0,1,5.15-6.388m4.313-1a9.657,9.657,0,0,1,6.075,2.138,12.768,12.768,0,0,1-4.788,3.425,37.074,37.074,0,0,0-3.362-5.337A10.343,10.343,0,0,1,14.5,4.75m7.662,3.725a9.779,9.779,0,0,1,2.075,5.563A19.151,19.151,0,0,0,20.25,13.6h-.013a16.878,16.878,0,0,0-2.825.238c-.213-.525-.413-1.025-.65-1.512a15.19,15.19,0,0,0,5.4-3.85M14.5,2A12.5,12.5,0,1,0,27,14.5,12.5,12.5,0,0,0,14.5,2Z" transform="translate(-2 -2)"/>
</svg>