<svg height="60" viewBox="0 0 54 60" width="54" xmlns="http://www.w3.org/2000/svg"><g fill="#111"><path d="m308.191 360.779v1.461a.88.88 0 1 0 1.76 0v-1.461a.88.88 0 0 0 -1.76 0zm0 0" transform="translate(-272.115 -317.726)"/><path d="m146.879 360.779v1.461a.88.88 0 1 0 1.76 0v-1.461a.88.88 0 0 0 -1.76 0zm0 0" transform="translate(-129.686 -317.726)"/><path d="m206.676 365.986a3.355 3.355 0 1 0 3.324-3.779 3.579 3.579 0 0 0 -3.324 3.779zm4.9 0a1.618 1.618 0 1 1 -1.576-2.019 1.839 1.839 0 0 1 1.572 2.019zm0 0" transform="translate(-182.489 -319.77)"/><path d="m53.794 17.917a3.437 3.437 0 0 0 -2.2-2.129c-1.03-.331-2.27-.724-3.684-1.168a4.13 4.13 0 0 0 -1.786-.149q.292-.9.6-1.731a3.467 3.467 0 0 0 -2.91-4.669c-1.078-.1-3.985-.366-4.053-.369.241-.635.493-1.265.755-1.882a3.5 3.5 0 0 0 -2.356-4.763c-1.394-.357-2.578-.657-3.518-.906a4.688 4.688 0 0 0 -5.169 2.078 22.545 22.545 0 0 0 -1.959 4.247 22.516 22.516 0 0 0 -1.959-4.247 4.687 4.687 0 0 0 -5.168-2.078c-.935.244-2.119.548-3.519.905a3.5 3.5 0 0 0 -2.357 4.764c.271.635.53 1.281.776 1.933-.341-.056-3.823.214-4.9.318a3.467 3.467 0 0 0 -2.91 4.669q.315.844.611 1.76a4.132 4.132 0 0 0 -2 .12c-1.413.444-2.653.837-3.684 1.168a3.469 3.469 0 0 0 -1.848 5.182c.795 1.236 1.593 2.638 2.378 4.17a4.793 4.793 0 0 0 -.811 4.085l6.712 26.256a5.992 5.992 0 0 0 7.509 4.268 41.324 41.324 0 0 1 11.171-1.867c6.968 0 10.32 2.118 12.885 2.118a5.922 5.922 0 0 0 5.794-4.519.878.878 0 1 0 -1.7-.436 4.236 4.236 0 0 1 -5.307 3.018 43.076 43.076 0 0 0 -11.671-1.94 43.076 43.076 0 0 0 -11.671 1.94 4.237 4.237 0 0 1 -5.308-3.018l-6.713-26.256a3.066 3.066 0 0 1 2.965-3.827l3.57.013a4.948 4.948 0 0 1 4.677 3.358 13.169 13.169 0 0 0 24.96 0 4.947 4.947 0 0 1 4.677-3.358l3.566-.013a3.066 3.066 0 0 1 2.968 3.827l-5.827 22.786a.878.878 0 1 0 1.7.436l5.825-22.786a4.538 4.538 0 0 0 -1.467-4.8c.663-1.253 1.336-2.412 2-3.453a3.455 3.455 0 0 0 .356-3.055zm-22.818-14.777a2.921 2.921 0 0 1 3.224-1.289c.942.246 2.13.552 3.529.908a1.742 1.742 0 0 1 1.171 2.371c-.418.981-2.362 3.6-3.466 6.157-.171-.046-3.667-.445-3.667-.445a3.962 3.962 0 0 0 -2.916.842q-.2-1.081-.437-2.095a23.579 23.579 0 0 1 2.562-6.449zm-3.087 18.027c.447-2.855.939-5.289 1.275-6.836a2.219 2.219 0 0 1 2.415-1.741l3.14.345a1.726 1.726 0 0 1 1.247.754 1.75 1.75 0 0 1 .23 1.458 91.685 91.685 0 0 0 -2.923 18.833 11.388 11.388 0 0 1 -4.264 1.46 87.248 87.248 0 0 0 -1.12-14.273zm-11.722-17.489a1.743 1.743 0 0 1 1.133-.918c1.4-.358 2.591-.663 3.529-.908a2.921 2.921 0 0 1 3.225 1.288 28.36 28.36 0 0 1 3.387 10.851c-.128.592-.279 1.31-.44 2.128-.157-.794-.309-1.521-.449-2.162a3.971 3.971 0 0 0 -4.322-3.115s-3.367.376-3.478.4c-.07-.225-2.093-4.866-2.625-6.112a1.735 1.735 0 0 1 .04-1.452zm-11.891 20.234c-.74-1.418-1.493-2.726-2.244-3.893a1.711 1.711 0 0 1 .91-2.558c1.027-.33 2.263-.722 3.673-1.165a2.363 2.363 0 0 1 2.116.351c.553 1.993 1.047 4.189 1.478 6.57l-3.417-.017a4.792 4.792 0 0 0 -2.516.712zm12.424 3.859a6.694 6.694 0 0 0 -4.669-4.337 64.926 64.926 0 0 0 -2.909-11.31 1.71 1.71 0 0 1 1.433-2.3c1.075-.1 2.365-.223 3.836-.355 1.115-.1 2.267.271 2.77 2.577a3.325 3.325 0 0 0 -1.045 3.586c.364 1.28.7 2.649 1.006 4.066a.878.878 0 1 0 1.717-.368c-.311-1.455-.659-2.861-1.034-4.179a1.75 1.75 0 0 1 .23-1.457 1.727 1.727 0 0 1 1.247-.755l3.14-.345a2.221 2.221 0 0 1 2.415 1.741 98.63 98.63 0 0 1 2.416 21.2 11.392 11.392 0 0 1 -6.567-2.265c-.156-2.478-.478-6.185-1.138-10.184a.878.878 0 1 0 -1.732.287c.5 3.011.8 5.857.981 8.118a11.407 11.407 0 0 1 -2.097-3.72zm35.269-7.752c-.68 1.057-1.361 2.23-2.033 3.493a4.837 4.837 0 0 0 -1.7-.308l-3.57.014a6.7 6.7 0 0 0 -6.334 4.553 11.4 11.4 0 0 1 -3.213 4.868 87.54 87.54 0 0 1 2.767-17.011 3.617 3.617 0 0 0 -.886-3.437c.7-2.333 1.7-2.826 2.816-2.726 1.471.132 2.762.251 3.836.355a1.711 1.711 0 0 1 1.433 2.3 58.707 58.707 0 0 0 -2.323 8.265.869.869 0 0 0 .677 1.042.86.86 0 0 0 1.041-.678c.319-1.508.667-2.933 1.04-4.265a2.39 2.39 0 0 1 1.869-.192c1.41.443 2.646.835 3.673 1.165a1.711 1.711 0 0 1 .91 2.557zm0 0"/></g></svg>