<svg xmlns="http://www.w3.org/2000/svg" width="79.161" height="84.078" viewBox="0 0 79.161 84.078"><g transform="translate(-14.97)"><path d="M174.883,249.031a1.232,1.232,0,0,0-1.232,1.232v2.362a1.232,1.232,0,1,0,2.463,0v-2.362A1.232,1.232,0,0,0,174.883,249.031Z" transform="translate(-132.623 -208.136)"/><path d="M324.581,253.856a1.232,1.232,0,0,0,1.232-1.232v-2.362a1.232,1.232,0,1,0-2.463,0v2.362A1.232,1.232,0,0,0,324.581,253.856Z" transform="translate(-257.739 -208.136)"/><path d="M237.406,265.026a1.232,1.232,0,1,0-1.857-1.618,3.063,3.063,0,0,1-4.624,0,1.232,1.232,0,0,0-1.857,1.618,5.527,5.527,0,0,0,8.338,0Z" transform="translate(-178.687 -219.799)"/><path d="M54.551,0A39.625,39.625,0,0,0,14.97,39.581a57.811,57.811,0,0,0,1.086,12.112A30.694,30.694,0,0,0,20.942,63.3a5.687,5.687,0,0,0,4.634,2.411h14.76a29.622,29.622,0,0,0,3.985,1.805c-.284.228-.562.464-.831.71a1.232,1.232,0,0,0,1.663,1.817,14.143,14.143,0,0,1,2.14-1.613,29.792,29.792,0,0,0,14.515,0,14.2,14.2,0,0,1,6.118,7.879c-1.071.39-2.161.734-3.263,1.028a16.563,16.563,0,0,0-1.255-3.863,1.232,1.232,0,0,0-2.232,1.042,14.109,14.109,0,0,1,1.248,4.474,21.8,21.8,0,0,1,.082,2.623H46.6a21.8,21.8,0,0,1,.082-2.623,14.115,14.115,0,0,1,1.248-4.474,1.232,1.232,0,0,0-2.232-1.042,16.571,16.571,0,0,0-1.255,3.863c-1.1-.294-2.19-.638-3.26-1.027a14.114,14.114,0,0,1,1.169-2.73,1.232,1.232,0,0,0-2.149-1.2,16.694,16.694,0,0,0-2.122,8.145v2.325a1.232,1.232,0,0,0,1.232,1.232H69.792a1.232,1.232,0,0,0,1.232-1.232V80.522A16.628,16.628,0,0,0,64.78,67.516a29.617,29.617,0,0,0,3.985-1.805h6.422a1.232,1.232,0,0,0,0-2.463H72.564A29.865,29.865,0,0,0,83.174,47.693a8.114,8.114,0,0,0-.108-16.227h-.7c-3.015-.671-6.1-1.24-9.177-1.692a1.71,1.71,0,0,1-1.194-.784L71,27.42a1.232,1.232,0,0,0-2.051-.047l-.625.894a1.715,1.715,0,0,1-1.567.725c-2.712-.259-5.471-.434-8.2-.519a1.725,1.725,0,0,1-1.515-1.019l-1.689-3.808a1.233,1.233,0,0,0-2.252,0l-1.7,3.83A1.725,1.725,0,0,1,49.9,28.5c-1.83.066-3.678.173-5.493.316a1.711,1.711,0,0,1-1.668-.934l-1.179-2.324a1.232,1.232,0,0,0-2.208.023l-1.517,3.153a1.707,1.707,0,0,1-1.3.954c-3.288.467-6.582,1.066-9.795,1.781h-.7a8.114,8.114,0,0,0-.108,16.227A29.865,29.865,0,0,0,36.538,63.247H25.576a3.22,3.22,0,0,1-2.622-1.369,28.285,28.285,0,0,1-4.487-10.694v0a55.455,55.455,0,0,1-1.033-11.6,37.117,37.117,0,0,1,74.235,0c0,6.743-.627,15.371-5.52,22.3a3.22,3.22,0,0,1-2.622,1.369H80.114a1.232,1.232,0,1,0,0,2.463h3.412A5.687,5.687,0,0,0,88.16,63.3c5.293-7.493,5.971-16.612,5.971-23.719A39.625,39.625,0,0,0,54.551,0ZM44.134,81.615H40.541a20.152,20.152,0,0,1,.112-2.875c1.148.407,2.316.765,3.5,1.069-.019.449-.015.638-.015,1.805ZM68.56,80.522v1.093H64.967c0-1.167,0-1.357-.015-1.805,1.179-.3,2.348-.662,3.5-1.069A14.358,14.358,0,0,1,68.56,80.522ZM83.767,33.974a5.65,5.65,0,0,1,0,11.213A29.831,29.831,0,0,0,83.767,33.974ZM25.335,45.187a5.65,5.65,0,0,1,0-11.213A29.834,29.834,0,0,0,25.335,45.187Zm2.733.98A27.472,27.472,0,0,1,27.9,33.733c2.954-.641,5.972-1.182,8.985-1.609a4.667,4.667,0,0,0,3.609-3.232,4.171,4.171,0,0,0,4.11,2.376c1.779-.141,3.592-.246,5.387-.31a4.2,4.2,0,0,0,3.669-2.483l.571-1.29.562,1.268a4.2,4.2,0,0,0,3.69,2.483c2.679.084,5.385.255,8.045.509a4.179,4.179,0,0,0,3.347-1.2,4.175,4.175,0,0,0,2.958,1.968c2.806.413,5.62.924,8.378,1.523A27.289,27.289,0,0,1,28.068,46.167Z" transform="translate(0)"/></g></svg>