<svg height="24" viewBox="0 0 28 24" width="28" xmlns="http://www.w3.org/2000/svg"><g transform="translate(-1)"><g fill="#74e4ff"><path d="m27 6h-21a2.006 2.006 0 0 1 -2-2 2.006 2.006 0 0 1 2-2h21a2.006 2.006 0 0 1 2 2 2.006 2.006 0 0 1 -2 2z"/><path d="m27 24h-21a2.006 2.006 0 0 1 -2-2 2.006 2.006 0 0 1 2-2h21a2.006 2.006 0 0 1 2 2 2.006 2.006 0 0 1 -2 2z"/><path d="m27 15h-21a2.006 2.006 0 0 1 -2-2 2.006 2.006 0 0 1 2-2h21a2.006 2.006 0 0 1 2 2 2.006 2.006 0 0 1 -2 2z"/></g><path d="m24 4h-21a2.006 2.006 0 0 1 -2-2 2.006 2.006 0 0 1 2-2h21a2.006 2.006 0 0 1 2 2 2.006 2.006 0 0 1 -2 2z" fill="#e61860"/><path d="m24 22h-21a2.006 2.006 0 0 1 -2-2 2.006 2.006 0 0 1 2-2h21a2.006 2.006 0 0 1 2 2 2.006 2.006 0 0 1 -2 2z" fill="#e61860"/><path d="m24 13h-21a2.006 2.006 0 0 1 -2-2 2.006 2.006 0 0 1 2-2h21a2.006 2.006 0 0 1 2 2 2.006 2.006 0 0 1 -2 2z" fill="#e61860"/></g></svg>