<svg enable-background="new 0 0 42 42" viewBox="0 0 42 42" xmlns="http://www.w3.org/2000/svg"><path d="m38 42h-34c-2.2 0-4-1.8-4-4v-34c0-2.2 1.8-4 4-4h34c2.2 0 4 1.8 4 4v34c0 2.2-1.8 4-4 4z" fill="#000039"/><g enable-background="new" fill="#74e4ff"><path d="m10.9 34h-3.4v-25.2h3.4z"/><path d="m29.9 30.8v3.2h-5.3c-1 0-1.8 0-2.3-.1-.6 0-1.3-.2-2.1-.4-.8-.3-1.5-.6-2.1-1.1-.9-.8-1.5-1.8-1.7-2.9-.3-1.1-.4-2.5-.4-4v-16.7h3.4v16.6c0 1.4.2 2.5.5 3.3.6 1.5 1.9 2.2 3.9 2.2h6.1z"/><path d="m36.7 34h-3.4v-25.2h3.4z"/></g><g enable-background="new" fill="#e61860"><path d="m8.9 32h-3.4v-25.2h3.4z"/><path d="m27.9 28.8v3.2h-5.3c-1 0-1.8 0-2.3-.1-.6 0-1.3-.2-2.1-.4-.8-.3-1.5-.6-2.1-1.1-.9-.8-1.5-1.8-1.7-2.9-.3-1.1-.4-2.5-.4-4v-16.7h3.4v16.6c0 1.4.2 2.5.5 3.3.6 1.5 1.9 2.2 3.9 2.2h6.1z"/><path d="m34.7 32h-3.4v-25.2h3.4z"/></g></svg>