<svg height="81" viewBox="0 0 84 81" width="84" xmlns="http://www.w3.org/2000/svg"><g transform="translate(-16 -24)"><path d="m95.8 24h-75.6a4.2 4.2 0 0 0 -4.2 4.19v72.62a4.2 4.2 0 0 0 4.2 4.19h75.6a4.2 4.2 0 0 0 4.2-4.19v-72.62a4.2 4.2 0 0 0 -4.2-4.19zm-75.6 2.793h75.6a1.4 1.4 0 0 1 1.4 1.4v6.983h-78.4v-6.986a1.4 1.4 0 0 1 1.4-1.4zm75.6 75.414h-75.6a1.4 1.4 0 0 1 -1.4-1.4v-62.841h78.4v62.844a1.4 1.4 0 0 1 -1.4 1.397z"/><ellipse cx="34.096" cy="30.916" rx="1.627" ry="2.034"/><ellipse cx="28.401" cy="30.916" rx="1.627" ry="2.034"/><ellipse cx="23.112" cy="30.916" rx="1.22" ry="2.034"/><path d="m129.8 136h-64.4a1.4 1.4 0 0 0 -1.4 1.4v22.4a1.4 1.4 0 0 0 1.4 1.4h64.4a1.4 1.4 0 0 0 1.4-1.4v-22.4a1.4 1.4 0 0 0 -1.4-1.4zm-22.951 20.731 3.351-3.352 5.02 5.02h-7.12zm-2.249 1.669h-11.2l5.6-7.467zm-14.7 0h-10.611l7.111-10.159 5.368 7.668zm38.5 0h-9.22l-7.99-7.99a1.4 1.4 0 0 0 -1.98 0l-4.059 4.059-5.031-6.709a1.4 1.4 0 0 0 -2.24 0l-4.344 5.793-5.989-8.553a1.4 1.4 0 0 0 -2.294 0l-9.382 13.4h-9.071v-19.6h61.6z" transform="translate(-39.6 -92.47)"/><ellipse cx="66.234" cy="53.219" rx="1.22" ry="1.627"/><circle cx="63.793" cy="73.102" r="1.22"/><ellipse cx="57.691" cy="73.102" rx="1.627" ry="1.22"/><circle cx="52.402" cy="73.102" r="1.22"/><path d="m82.2 328h-16.8a1.4 1.4 0 0 0 -1.4 1.4v11.2a1.4 1.4 0 0 0 1.4 1.4h16.8a1.4 1.4 0 0 0 1.4-1.4v-11.2a1.4 1.4 0 0 0 -1.4-1.4zm-1.4 2.8v8.007l-6.125-4.9a1.4 1.4 0 0 0 -1.75 0l-6.125 4.9v-8.007zm-3.991 8.4h-6.018l3.009-2.407z" transform="translate(-39.6 -250.958)"/><path d="m218.2 328h-16.8a1.4 1.4 0 0 0 -1.4 1.4v11.2a1.4 1.4 0 0 0 1.4 1.4h16.8a1.4 1.4 0 0 0 1.4-1.4v-11.2a1.4 1.4 0 0 0 -1.4-1.4zm-1.4 2.8v8.007l-6.125-4.9a1.4 1.4 0 0 0 -1.75 0l-6.125 4.9v-8.007zm-3.991 8.4h-6.018l3.009-2.407z" transform="translate(-151.8 -250.958)"/><path d="m354.2 328h-16.8a1.4 1.4 0 0 0 -1.4 1.4v11.2a1.4 1.4 0 0 0 1.4 1.4h16.8a1.4 1.4 0 0 0 1.4-1.4v-11.2a1.4 1.4 0 0 0 -1.4-1.4zm-1.4 2.8v8.007l-6.125-4.9a1.4 1.4 0 0 0 -1.75 0l-6.125 4.9v-8.007zm-3.991 8.4h-6.018l3.009-2.407z" transform="translate(-264 -250.958)"/><path d="m92.6 424h-11.2a1.4 1.4 0 1 0 0 2.8h11.2a1.4 1.4 0 1 0 0-2.8z" transform="translate(-52.8 -330.2)"/><path d="m228.6 424h-11.2a1.4 1.4 0 1 0 0 2.8h11.2a1.4 1.4 0 1 0 0-2.8z" transform="translate(-165 -330.2)"/><path d="m364.6 424h-11.2a1.4 1.4 0 1 0 0 2.8h11.2a1.4 1.4 0 1 0 0-2.8z" transform="translate(-277.2 -330.2)"/></g></svg>