<svg height="336" viewBox="0 0 338 336" width="338" xmlns="http://www.w3.org/2000/svg" xmlns:xlink="http://www.w3.org/1999/xlink"><linearGradient id="a" gradientUnits="objectBoundingBox" x1=".5" x2=".5" y1="1"><stop offset="0" stop-color="#808080" stop-opacity=".251"/><stop offset=".54" stop-color="#808080" stop-opacity=".122"/><stop offset="1" stop-color="#808080" stop-opacity=".102"/></linearGradient><linearGradient id="b" x1="0" x2="1" xlink:href="#a" y1=".5" y2=".5"/><linearGradient id="c" x1="-1.487" x2="-1.487" xlink:href="#a" y1=".893" y2=".279"/><linearGradient id="d" x1="-2.825" x2="-2.825" xlink:href="#a" y1=".844" y2=".229"/><linearGradient id="e" x1="-.315" x2="-.315" xlink:href="#a" y1=".895" y2=".281"/><linearGradient id="f" x1="-1.653" x2="-1.653" xlink:href="#a" y1=".845" y2=".231"/><linearGradient id="g" x1="-.341" x2="-.341" xlink:href="#a" y1="5.17" y2="4.346"/><linearGradient id="h" x1="2.396" x2="2.396" xlink:href="#a" y1="7.371" y2="6.327"/><path d="m0 0h34.293v151.165h-34.293z" fill="url(#a)" transform="translate(159.556 184.835)"/><path d="m162.712 184.835h28.878v148.46h-28.878z" fill="#eceff1"/><path d="m487.725 228.64h-154.441a40.983 40.983 0 0 0 -15.4 3.433c-15.7 6.958-24.837 17.879-27.417 42.1v55.955l-40.923-.433c-8.23 0-11.239 12.939-11.239 21.685h276.432v-94.037c0-15.851-12.077-28.703-27.012-28.703z" fill="url(#b)" transform="translate(-214.099 -161.643)"/><path d="m270.85 158.06h153.022a18.745 18.745 0 0 1 18.745 18.745v93.164h-171.767z" fill="#e61860" transform="translate(-146.043 -85.196)"/><path d="m214.423 158.06a41.513 41.513 0 0 1 41.513 41.513v50.08a20.317 20.317 0 0 1 -20.317 20.317h-42.392a20.317 20.317 0 0 1 -20.317-20.317v-50.08a41.513 41.513 0 0 1 41.513-41.513z" fill="#e61860" transform="translate(-93.233 -85.196)"/><path d="m214.423 158.06a41.513 41.513 0 0 1 41.513 41.513v50.08a20.317 20.317 0 0 1 -20.317 20.317h-42.392a20.317 20.317 0 0 1 -20.317-20.317v-50.08a41.513 41.513 0 0 1 41.513-41.513z" opacity=".2" transform="translate(-93.233 -85.196)"/><path d="m462.813 125.75h-34.293v56.85h15.566v-31.363h18.727z" fill="url(#a)" transform="translate(-231.059 -67.786)"/><path d="m463.268 125.75h-28.878v52.342h10.829v-28.878h18.049z" fill="#79e4fd" transform="translate(-234.224 -67.786)"/><path d="m0 0h35.334v57.494h-35.334z" fill="url(#c)" transform="matrix(.121 -.993 .993 .121 75.743 129.303)"/><path d="m0 0h32.975v55.545h-32.975z" fill="#faf8e4" transform="matrix(.121 -.993 .993 .121 76.623 127.918)"/><g fill="#e61860" opacity=".6" transform="translate(82.054 97.977)"><path d="m0 0h7.069v5.23h-7.069z" transform="matrix(-.993 -.121 .121 -.993 7.017 6.046)"/><path d="m0 0h27.136v1.696h-27.136z" transform="matrix(-.993 -.121 .121 -.993 31.463 19.269)"/><path d="m0 0h19.787v1.129h-19.787z" transform="matrix(-.993 -.121 .121 -.993 31.02 22.919)"/></g><path d="m0 0h35.334v57.494h-35.334z" fill="url(#d)" transform="matrix(.121 -.993 .993 .121 98.997 137.021)"/><path d="m0 0h32.975v55.545h-32.975z" fill="#faf8e4" transform="matrix(.121 -.993 .993 .121 99.877 135.64)"/><g fill="#e61860" opacity=".6" transform="translate(105.312 105.7)"><path d="m0 0h7.069v5.23h-7.069z" transform="matrix(-.993 -.121 .121 -.993 7.017 6.046)"/><path d="m0 0h27.136v1.696h-27.136z" transform="matrix(-.993 -.121 .121 -.993 31.463 19.269)"/><path d="m0 0h19.787v1.129h-19.787z" transform="matrix(-.993 -.121 .121 -.993 31.011 22.918)"/></g><path d="m0 0h47.895v77.93h-47.895z" fill="url(#e)" transform="matrix(.121 -.993 .993 .121 48.07 152.79)"/><path d="m0 0h44.702v75.29h-44.702z" fill="#fff" transform="matrix(.121 -.993 .993 .121 49.265 150.91)"/><g fill="#e61860" opacity=".6" transform="translate(56.628 110.327)"><path d="m0 0h9.58v7.087h-9.58z" transform="matrix(-.993 -.121 .121 -.993 9.51 8.193)"/><path d="m0 0h36.786v2.299h-36.786z" transform="matrix(-.993 -.121 .121 -.993 42.643 26.122)"/><path d="m0 0h26.823v1.534h-26.823z" transform="matrix(-.993 -.121 .121 -.993 42.045 31.066)"/></g><path d="m0 0h47.895v77.93h-47.895z" fill="url(#f)" transform="matrix(.121 -.993 .993 .121 79.593 163.252)"/><path d="m0 0h44.702v75.29h-44.702z" fill="#fff" transform="matrix(.121 -.993 .993 .121 80.783 161.38)"/><g fill="#e61860" opacity=".6" transform="translate(88.149 120.795)"><path d="m0 0h9.58v7.087h-9.58z" transform="matrix(-.993 -.121 .121 -.993 9.51 8.193)"/><path d="m0 0h36.786v2.299h-36.786z" transform="matrix(-.993 -.121 .121 -.993 42.643 26.122)"/><path d="m0 0h26.823v1.534h-26.823z" transform="matrix(-.993 -.121 .121 -.993 42.044 31.066)"/></g><path d="m429.3 242.35a41.38 41.38 0 0 0 -15.828 3.133 41.827 41.827 0 0 1 5.9-.424 41.513 41.513 0 0 1 41.513 41.513v65.894h9.926v-68.6a41.513 41.513 0 0 0 -41.511-41.516z" opacity=".2" transform="translate(-308.551 -169.035)"/><path d="m77.691 369.58h119.126v14.441h-133.567a14.441 14.441 0 0 1 14.441-14.441z" fill="#e61860" transform="translate(-34.105 -199.23)"/><path d="m77.691 369.58h119.126v14.441h-133.567a14.441 14.441 0 0 1 14.441-14.441z" fill="#fff" opacity=".2" transform="translate(-34.105 -199.23)"/><path d="m655.769 32.523-1.369.668.157-.281-.12.037.17-.124 18.442-32.823 9.428 8.041 8.092 7.488-2.322 1.134 2.608 4.6z" fill="url(#g)" transform="translate(-352.854)"/><path d="m682.748 19.31 7.391 6.857-33.509 16.658 17.833-22.856z" fill="#e61860" transform="translate(-354.056 -10.412)"/><path d="m682.748 19.31 7.391 6.857-33.509 16.658 17.833-22.856z" opacity=".2" transform="translate(-354.056 -10.412)"/><path d="m674.122 3.35-17.492 30.869 26.118-23.519z" fill="#e61860" transform="translate(-354.056 -1.806)"/><path d="m690.4 34.123-33.69 11.129 28.159-21.022z" fill="#e61860" transform="translate(-354.099 -13.065)"/><path d="m56.065 42.459 2.2.341-.341-.323h.189l-.295-.1-40.018-37.957-9.718 15.331-8.082 13.985 3.742.581-1.659 7.575z" fill="url(#h)" transform="translate(0 -2.383)"/><path d="m12.542 36.3-7.382 12.8 54.116 8.81-34.855-24.27z" fill="#e61860" transform="translate(-2.782 -18.139)"/><path d="m12.542 36.3-7.382 12.8 54.116 8.81-34.855-24.27z" opacity=".2" transform="translate(-2.782 -18.139)"/><g fill="#e61860"><path d="m30.069 8.99 37.845 35.629-46.734-21.607z" transform="translate(-11.42 -4.847)"/><path d="m9.49 64.509 51.973 1-48.517-17.239z" transform="translate(-5.117 -26.027)"/></g></svg>