<svg xmlns="http://www.w3.org/2000/svg" width="84" height="84" viewBox="0 0 84 84"><g transform="translate(-0.001 0.001)"><path d="M83.281,264.17a14.063,14.063,0,0,0,2.251-8.179,13.815,13.815,0,0,0-3.608-8.942l-5.488-5.929a39.579,39.579,0,0,0,.985-13.758,1.257,1.257,0,0,0-1.358-1.174,1.308,1.308,0,0,0-1.087,1.467,36.758,36.758,0,0,1-.571,11.269l-1.761-1.9a4.537,4.537,0,0,0-6.764,0,5.473,5.473,0,0,0,0,7.306l4.622,4.991a34.154,34.154,0,0,1-4.6,6.281A30.1,30.1,0,0,1,36.64,264.79l1.763-1.9a5.465,5.465,0,0,0,0-7.306,4.543,4.543,0,0,0-6.764,0l-4.628,5a32.189,32.189,0,0,1-5.832-4.975,34.164,34.164,0,0,1-4.806-6.653c-.013-.028-.022-.058-.038-.085-.521-.954-1-1.928-1.415-2.9a35.437,35.437,0,0,1-1.556-4.336,1.417,1.417,0,0,0-.072-.19,36.728,36.728,0,0,1-1.249-13.09A1.3,1.3,0,0,0,10.93,226.9a1.262,1.262,0,0,0-1.336,1.2,39.571,39.571,0,0,0,1.192,13.55l-5.3,5.723a13.819,13.819,0,0,0-3.607,8.892,14.062,14.062,0,0,0,2.2,8.147l-.123.133a5.594,5.594,0,0,0,0,7.481L6.237,274.5a4.647,4.647,0,0,0,6.923,0l.11-.119a11.546,11.546,0,0,0,9.377,2.216,1.326,1.326,0,0,0,.986-1.548A1.242,1.242,0,0,0,22.2,273.98a9.249,9.249,0,0,1-7.156-1.519l2.591-2.8a5.374,5.374,0,0,0,1.287-2.447,4.413,4.413,0,0,0,5.955-.576l3.187-3.442.006-.007,5.306-5.732a2.207,2.207,0,0,1,3.287,0,2.654,2.654,0,0,1,0,3.546l-3.28,3.544-.013.015-5.987,6.467a10.34,10.34,0,0,1-1.039.978,1.4,1.4,0,0,0-.239,1.861,1.2,1.2,0,0,0,.982.527,1.166,1.166,0,0,0,.741-.269,12.736,12.736,0,0,0,1.294-1.218l5.486-5.925a31.632,31.632,0,0,0,18.362-.154l5.32,5.749a11.9,11.9,0,0,0,8.232,3.9q.251.011.5.011a11.672,11.672,0,0,0,7.042-2.386l.124.134a4.648,4.648,0,0,0,6.923,0l2.281-2.464a5.593,5.593,0,0,0,0-7.48ZM4.34,256.379a11.066,11.066,0,0,1,2.888-7.12l4.425-4.78a38.032,38.032,0,0,0,2.081,4.848l-2.442,2.638a5.21,5.21,0,0,0-1.366,3.562,5.288,5.288,0,0,0,.785,2.8,4.786,4.786,0,0,0-2.28,1.39L5.853,262.5A11.3,11.3,0,0,1,4.34,256.379Zm11.557,11.4-3.576,3.862h0l-.9.97a2.313,2.313,0,0,1-3.445,0L5.7,270.153a2.783,2.783,0,0,1,0-3.722l.88-.95.009-.01,3.587-3.874a2.311,2.311,0,0,1,3.437-.007l2.179,2.353.11.118a2.784,2.784,0,0,1,0,3.722Zm7.242-3.023a2.087,2.087,0,0,1-3.115,0L17.648,262.2l-.012-.013-1.062-1.148-1.219-1.316-.008-.008-2.315-2.5a2.515,2.515,0,0,1,0-3.365l2.019-2.181a36.727,36.727,0,0,0,3.808,5.171l-.632.683a1.405,1.405,0,0,0,0,1.879,1.168,1.168,0,0,0,1.74,0l.653-.705a34.577,34.577,0,0,0,4.61,3.813ZM67.621,238.9a2.205,2.205,0,0,1,3.284,0l9.28,10.026a11.392,11.392,0,0,1,1.324,13.326l-2.591-2.8a4.792,4.792,0,0,0-2.265-1.386,5.283,5.283,0,0,0,.834-2.875,5.214,5.214,0,0,0-1.366-3.562l-8.5-9.181A2.658,2.658,0,0,1,67.621,238.9Zm-.587,19.225.641.692a1.167,1.167,0,0,0,1.74,0,1.406,1.406,0,0,0,0-1.879l-.662-.716a36.822,36.822,0,0,0,3.533-4.977l2.1,2.265a2.517,2.517,0,0,1,0,3.365L72,259.45l-.006.006-2.281,2.464-.006.007-2.317,2.5a2.093,2.093,0,0,1-3.116,0l-2.033-2.2A34.648,34.648,0,0,0,67.033,258.128ZM66.62,273.82a9.529,9.529,0,0,1-6.591-3.119l-4.438-4.8c.824-.335,1.637-.7,2.432-1.107.691-.348,1.381-.729,2.061-1.135l2.45,2.646a4.414,4.414,0,0,0,5.887.627,5.381,5.381,0,0,0,1.291,2.464l2.577,2.783A9.314,9.314,0,0,1,66.62,273.82Zm15.033-3.929-2.281,2.464a2.312,2.312,0,0,1-3.444,0l-4.475-4.834a2.782,2.782,0,0,1,0-3.717l2.287-2.471a2.312,2.312,0,0,1,3.441,0l3.6,3.886h0l.877.947a2.783,2.783,0,0,1,0,3.722Zm0,0" transform="translate(-1.54 -192.821)"/><path d="M12.9,39.784a4.536,4.536,0,0,0,6.763,0,5.473,5.473,0,0,0,0-7.306l-4.642-5.015a34.049,34.049,0,0,1,4.239-5.887,1.367,1.367,0,0,0,.1-.1,1.308,1.308,0,0,0,.11-.139l.145-.159A32.232,32.232,0,0,1,25.7,16.043a1.207,1.207,0,0,0,.184-.1,30.511,30.511,0,0,1,2.683-1.529,30.1,30.1,0,0,1,4.015-1.68,1.163,1.163,0,0,0,.205-.094A29.343,29.343,0,0,1,48.93,12l-1.783,1.926a5.459,5.459,0,0,0,0,7.3,4.539,4.539,0,0,0,6.762,0l4.637-5.008a32.186,32.186,0,0,1,5.8,4.953,34.207,34.207,0,0,1,5.064,7.128,51.95,51.95,0,0,1,2.744,6.737,1.383,1.383,0,0,0,.083.286.019.019,0,0,1,0,0c.247.882.737.788,1.123.788h0a1.184,1.184,0,0,0,.869-.389l5.832-6.3a13.817,13.817,0,0,0,3.606-8.893,14.063,14.063,0,0,0-2.2-8.147l.123-.133a5.476,5.476,0,0,0,1.434-3.74,5.476,5.476,0,0,0-1.434-3.74L79.311,2.32a4.648,4.648,0,0,0-6.924,0l-.11.119A11.654,11.654,0,0,0,64.7.008a11.894,11.894,0,0,0-8.278,3.9L50.959,9.812a31.626,31.626,0,0,0-18.416.137L27.251,4.229a11.9,11.9,0,0,0-8.232-3.9,11.651,11.651,0,0,0-7.542,2.374l-.123-.134a4.649,4.649,0,0,0-6.924,0L2.149,5.039A5.473,5.473,0,0,0,.715,8.778a5.474,5.474,0,0,0,1.434,3.74l.111.12a14.067,14.067,0,0,0-2.251,8.18A13.816,13.816,0,0,0,3.617,29.76ZM67.861,14.578l.051.055,4.6,4.972a2.516,2.516,0,0,1,0,3.366l-2.023,2.185a36.749,36.749,0,0,0-3.8-5.176l.632-.682a1.4,1.4,0,0,0,0-1.879,1.166,1.166,0,0,0-1.739,0l-.65.7A34.569,34.569,0,0,0,60.328,14.3l2.081-2.248a2.093,2.093,0,0,1,3.117,0Zm13.347,5.859a11.061,11.061,0,0,1-2.888,7.119L73.863,32.37A49.531,49.531,0,0,0,71.8,27.5l2.454-2.652a5.209,5.209,0,0,0,1.367-3.562,5.29,5.29,0,0,0-.785-2.8A4.784,4.784,0,0,0,77.117,17.1l2.577-2.784A11.292,11.292,0,0,1,81.209,20.437ZM75.849,3.429a2.339,2.339,0,0,1,1.722.77l2.281,2.464a2.784,2.784,0,0,1,0,3.722l-.9.967-.008.008-3.572,3.859a2.312,2.312,0,0,1-3.444,0l-2.281-2.464a2.787,2.787,0,0,1,0-3.722L74.127,4.2A2.336,2.336,0,0,1,75.849,3.429ZM58.166,5.785A9.39,9.39,0,0,1,70.5,4.355l-2.592,2.8A5.375,5.375,0,0,0,66.629,9.6a4.415,4.415,0,0,0-5.959.574l-8.5,9.181a2.2,2.2,0,0,1-3.285,0,2.651,2.651,0,0,1,0-3.546ZM11.161,23.3a2.517,2.517,0,0,1,0-3.365l6.992-7.553a2.091,2.091,0,0,1,3.116,0l2.009,2.17a34.885,34.885,0,0,0-4.79,4.111l-.621-.671a1.167,1.167,0,0,0-1.739,0,1.407,1.407,0,0,0,0,1.88l.639.69a36.669,36.669,0,0,0-3.531,4.979Zm7.76-20.307a9.525,9.525,0,0,1,6.591,3.119l4.419,4.775a32.89,32.89,0,0,0-4.489,2.245L23.008,10.5a4.413,4.413,0,0,0-5.888-.626,5.374,5.374,0,0,0-1.292-2.465L13.251,4.625A9.3,9.3,0,0,1,18.921,2.989ZM3.889,6.918,6.17,4.454a2.314,2.314,0,0,1,3.445,0l.891.963.013.014L14.09,9.288a2.784,2.784,0,0,1,0,3.722l-2.281,2.464a2.312,2.312,0,0,1-3.445,0L3.889,10.639a2.783,2.783,0,0,1,0-3.722Zm.145,7.636,2.59,2.8a4.79,4.79,0,0,0,2.265,1.387,5.281,5.281,0,0,0-.834,2.874,5.216,5.216,0,0,0,1.366,3.562l8.5,9.181a2.658,2.658,0,0,1,0,3.549,2.2,2.2,0,0,1-3.283,0L5.356,27.88A11.387,11.387,0,0,1,4.034,14.554Zm0,0" transform="translate(0 0)"/><path d="M120.775,279.492l-6.522,5.781a2.5,2.5,0,0,0-.212,3.521l3.594,4.054a.107.107,0,0,1,.011.014l.01.009,3.447,3.888a2.5,2.5,0,0,0,3.52.212l6.522-5.781a2.5,2.5,0,0,0,.212-3.521L124.3,279.7A2.5,2.5,0,0,0,120.775,279.492Zm1.64,2.1,2.562,2.89-6.238,5.61-2.6-2.936Zm.566,13.284-2.478-2.8,6.237-5.61,2.519,2.84Zm0,0" transform="translate(-95.19 -234.065)"/><path d="M290.525,130.385l-9.356,8.292a2.7,2.7,0,0,0-.229,3.808l6.791,7.661a2.68,2.68,0,0,0,1.856.9c.055,0,.111,0,.165,0a2.677,2.677,0,0,0,1.786-.679l9.356-8.292a2.7,2.7,0,0,0,.229-3.808l-6.791-7.66A2.7,2.7,0,0,0,290.525,130.385Zm8.62,9.681a.032.032,0,0,1-.013.027h0l-9.356,8.292a.03.03,0,0,1-.028.01.037.037,0,0,1-.028-.013l-6.791-7.661a.035.035,0,0,1-.01-.028.039.039,0,0,1,.013-.028l9.356-8.292a.04.04,0,0,1,.026-.01.038.038,0,0,1,.03.013l6.791,7.661A.033.033,0,0,1,299.145,140.066Zm0,0" transform="translate(-235.426 -108.95)"/></g></svg>