<svg xmlns="http://www.w3.org/2000/svg" width="57.873" height="84.118" viewBox="0 0 57.873 84.118"><path d="M31.247,46.7H22.986a1.232,1.232,0,0,0,0,2.464h8.261a1.232,1.232,0,1,0,0-2.464ZM35.433,66H18.8a1.232,1.232,0,0,0,0,2.464H35.433a1.232,1.232,0,0,0,0-2.464Zm7.882,15.657H8.254a5.8,5.8,0,0,1-5.789-5.789v-60.6a1.232,1.232,0,1,0-2.464,0v60.6a8.263,8.263,0,0,0,8.254,8.254H43.315a1.232,1.232,0,0,0,0-2.464Zm11.178-58a3.383,3.383,0,0,0,3.38-3.379V13.438a3.383,3.383,0,0,0-3.38-3.379h-.261V8.254A8.263,8.263,0,0,0,45.979,0H8.254A8.263,8.263,0,0,0,0,8.254v1.08a1.232,1.232,0,1,0,2.464,0V8.254A5.8,5.8,0,0,1,8.254,2.464H45.979a5.8,5.8,0,0,1,5.789,5.789V75.864a5.81,5.81,0,0,1-3.378,5.265,1.232,1.232,0,0,0,1.028,2.24,8.28,8.28,0,0,0,4.814-7.5V39.7h.261a3.383,3.383,0,0,0,3.38-3.379V29.48a3.383,3.383,0,0,0-3.38-3.379h-.261V23.656Zm-.261-11.133h.261a.916.916,0,0,1,.915.915v6.839a.916.916,0,0,1-.915.915h-.261Zm.261,16.041a.916.916,0,0,1,.915.915v6.839a.916.916,0,0,1-.915.915h-.261V28.565Zm-19.06,13.3H18.8a1.232,1.232,0,1,0,0,2.464H35.433a1.232,1.232,0,1,0,0-2.464ZM39.95,25.5h-.8a12,12,0,0,0-.543-2.541,1.265,1.265,0,0,0-.069-.2,12.118,12.118,0,0,0-11.373-8.122h-.107a12.117,12.117,0,0,0-11.37,8.121,1.176,1.176,0,0,0-.069.2,12,12,0,0,0-.544,2.541h-.8a4.607,4.607,0,0,0-4.6,4.6V49.776a4.608,4.608,0,0,0,4.6,4.6H39.95a4.607,4.607,0,0,0,4.6-4.6V30.1A4.607,4.607,0,0,0,39.95,25.5Zm-3.466-1.013a9.58,9.58,0,0,1,0,4.492H32.5a18.518,18.518,0,0,0,0-4.492Zm-.967,6.956a9.685,9.685,0,0,1-5.408,4.447,16.141,16.141,0,0,0,1.916-4.447Zm0-9.421H32.025a16.119,16.119,0,0,0-1.916-4.447A9.683,9.683,0,0,1,35.518,22.023Zm-8.4-4.377a12.58,12.58,0,0,1,2.344,4.377H24.772A12.58,12.58,0,0,1,27.116,17.646Zm2.9,6.841a16.183,16.183,0,0,1,0,4.492h-5.8a16.184,16.184,0,0,1,0-4.492Zm-.555,6.956a12.582,12.582,0,0,1-2.344,4.376,12.582,12.582,0,0,1-2.344-4.376ZM24.124,35.89a9.683,9.683,0,0,1-5.408-4.447h3.493A16.1,16.1,0,0,0,24.124,35.89Zm0-18.315a16.118,16.118,0,0,0-1.916,4.447H18.715A9.681,9.681,0,0,1,24.124,17.576Zm-6.376,6.912h3.985a18.431,18.431,0,0,0,0,4.492H17.748a9.58,9.58,0,0,1,0-4.492Zm24.34,25.289a2.14,2.14,0,0,1-2.138,2.138H14.282a2.14,2.14,0,0,1-2.138-2.138V30.1a2.14,2.14,0,0,1,2.138-2.138h.8a11.963,11.963,0,0,0,.544,2.541,1.183,1.183,0,0,0,.069.2,12.118,12.118,0,0,0,11.424,8.122h0a12.118,12.118,0,0,0,11.424-8.122,1.239,1.239,0,0,0,.069-.2,11.993,11.993,0,0,0,.543-2.541h.8A2.14,2.14,0,0,1,42.088,30.1ZM32.578,7.16A1.173,1.173,0,1,0,31.4,8.333,1.173,1.173,0,0,0,32.578,7.16ZM48.939,9.71a4.422,4.422,0,0,0-4.417-4.417H37.656a4.013,4.013,0,0,0-3.362,1.812l-.867,1.318a1.193,1.193,0,0,1-1,.54H21.806a1.2,1.2,0,0,1-1-.54l-.866-1.318a4.014,4.014,0,0,0-3.362-1.812H9.71A4.421,4.421,0,0,0,5.293,9.71V70.365A4.421,4.421,0,0,0,9.71,74.782H44.523a4.421,4.421,0,0,0,4.417-4.417ZM42.088,72.317H12.145V62.351a2.14,2.14,0,0,1,2.137-2.138H39.95a2.14,2.14,0,0,1,2.138,2.138Zm4.387-1.953a1.954,1.954,0,0,1-1.923,1.952V62.351a4.607,4.607,0,0,0-4.6-4.6H14.282a4.607,4.607,0,0,0-4.6,4.6v9.965a1.954,1.954,0,0,1-1.923-1.952V9.71A1.955,1.955,0,0,1,9.71,7.758h6.866a1.556,1.556,0,0,1,1.3.7l.867,1.318a3.653,3.653,0,0,0,3.059,1.649H32.426a3.653,3.653,0,0,0,3.06-1.649l.867-1.318a1.555,1.555,0,0,1,1.3-.7h6.866A1.955,1.955,0,0,1,46.475,9.71ZM28.3,7.16a1.173,1.173,0,1,0-1.173,1.173A1.173,1.173,0,0,0,28.3,7.16Zm0,0"/></svg>