<svg height="84" viewBox="0 0 84 84" width="84" xmlns="http://www.w3.org/2000/svg"><g transform="translate(-4.023)"><path d="m115.155 234.861a1.3 1.3 0 0 0 -1.3 1.3v2.773a1.3 1.3 0 1 0 2.594 0v-2.773a1.3 1.3 0 0 0 -1.294-1.3z" transform="translate(-91.549 -196.463)"/><path d="m282.077 234.861a1.3 1.3 0 0 0 -1.3 1.3v2.773a1.3 1.3 0 1 0 2.594 0v-2.773a1.3 1.3 0 0 0 -1.294-1.3z" transform="translate(-230.68 -196.463)"/><path d="m185.073 250.741a1.3 1.3 0 0 0 -1.83.126 3.747 3.747 0 0 1 -5.654 0 1.3 1.3 0 0 0 -1.955 1.7 6.341 6.341 0 0 0 9.565 0 1.3 1.3 0 0 0 -.126-1.826z" transform="translate(-142.882 -209.45)"/><path d="m372.764 88.012a1.3 1.3 0 0 0 1.3-1.3v-14.661a1.3 1.3 0 0 0 -1.3-1.3h-3.5a1.3 1.3 0 0 0 0 2.594h2.207v13.371a1.3 1.3 0 0 0 1.293 1.296z" transform="translate(-303.448 -58.52)"/><path d="m84.49 8.317a1.263 1.263 0 0 0 -1.74-.305 1.218 1.218 0 0 0 -.31 1.713 16.652 16.652 0 0 1 3.083 9.675 17.165 17.165 0 1 1 -33.623-5.112 17.212 17.212 0 0 1 16.413-11.827 17.4 17.4 0 0 1 10.965 3.883 1.264 1.264 0 0 0 1.76-.163 1.217 1.217 0 0 0 -.166-1.733 19.876 19.876 0 0 0 -30.73 7.436 22.145 22.145 0 0 0 -4.628-1.838 8.082 8.082 0 1 0 -16.045 0 20.834 20.834 0 0 0 -13.5 11.176c-3.965 7.69-4.713 18.014-4.922 26.15a17.636 17.636 0 0 1 -3.222 9.725 23.375 23.375 0 0 0 -3.6 7.66 6.074 6.074 0 0 0 5.943 7.591h13.8a13.667 13.667 0 0 0 27.036 0h13.813a6.074 6.074 0 0 0 5.942-7.591 23.377 23.377 0 0 0 -3.6-7.66 17.019 17.019 0 0 1 -1.459-2.456 17.764 17.764 0 0 1 -1.763-7.271c-.088-3.427-.266-6.45-.541-9.18a19.977 19.977 0 0 0 4.919.612 19.579 19.579 0 0 0 19.71-19.4 19.075 19.075 0 0 0 -3.535-11.085zm-52.571 1.174a5.591 5.591 0 1 1 11.146 0 34.18 34.18 0 0 0 -11.146 0zm5.573 72.049a11.06 11.06 0 0 1 -10.992-9.196h21.987a11.06 11.06 0 0 1 -10.995 9.195zm23.3-44.2c1.046 9.164.012 11.507 1.9 16.605h-35.863a1.231 1.231 0 1 0 0 2.461h36.971a19.478 19.478 0 0 0 1.312 2.109 20.947 20.947 0 0 1 3.225 6.863 3.6 3.6 0 0 1 -3.522 4.51h-54.646a3.6 3.6 0 0 1 -3.524-4.51 20.942 20.942 0 0 1 3.226-6.868 19.466 19.466 0 0 0 1.312-2.11h10.646a1.231 1.231 0 1 0 0-2.461h-9.535a20.308 20.308 0 0 0 1.254-6.51c.2-7.877.914-17.848 4.652-25.1a18.585 18.585 0 0 1 13.072-10.2c5.241-1.161 12.7-.925 18.036 2.116a19.394 19.394 0 0 0 11.48 23.092z"/></g></svg>