<svg xmlns="http://www.w3.org/2000/svg" width="76.617" height="84" viewBox="0 0 76.617 84"><path d="M173.731,203.052v3.109a1.558,1.558,0,1,1-3.116,0v-3.109a1.558,1.558,0,1,1,3.116,0Z" transform="translate(-121.199 -168.983)"/><path d="M329.5,203.052v3.109a1.558,1.558,0,1,1-3.116,0v-3.109a1.558,1.558,0,1,1,3.116,0Z" transform="translate(-302.299 -168.983)"/><path d="M230.7,216.549a4.094,4.094,0,0,0,6.181,0,1.558,1.558,0,0,1,2.349,2.047,7.21,7.21,0,0,1-10.879,0,1.558,1.558,0,0,1,2.349-2.047Z" transform="translate(-195.48 -181.046)"/><path d="M31.1,22.318a30.928,30.928,0,0,1,59.411,0,8.609,8.609,0,0,1,.012,17.218,30.7,30.7,0,0,1-5.1,10.107,31.23,31.23,0,0,1-12.92,9.912,26.266,26.266,0,0,1,7.061,5.226,1.23,1.23,0,1,1-1.776,1.7,23.8,23.8,0,0,0-5.343-4.168,5.324,5.324,0,0,1-4.929,7.332H62.039V81.539H76.086c-.034-2.83-.186-5.573-.461-8.349a1.23,1.23,0,1,1,2.449-.243c.284,2.858.439,5.681.473,8.592H84.32A23.276,23.276,0,0,0,82.4,73.4a23.645,23.645,0,0,0-1.723-3.238,1.23,1.23,0,0,1,2.076-1.322,26.125,26.125,0,0,1,1.9,3.576,25.763,25.763,0,0,1,2.156,10.358A1.231,1.231,0,0,1,85.582,84H36.035a1.23,1.23,0,0,1-1.23-1.23,25.757,25.757,0,0,1,2.156-10.358A26.2,26.2,0,0,1,49.1,59.557a30.756,30.756,0,0,1-7.517-4.405,1.23,1.23,0,0,1,1.531-1.927,28.252,28.252,0,0,0,9.711,5.031,28.466,28.466,0,0,0,36.3-30.221A20.575,20.575,0,0,1,78.544,25.49a1.23,1.23,0,1,1,1.192-2.153,17.984,17.984,0,0,0,9.03,2.237,28.466,28.466,0,0,0-55.916,0,17.8,17.8,0,0,0,13.016-5.238,20.212,20.212,0,0,1,14.386-5.959h1.112A20.212,20.212,0,0,1,75.75,20.335q.142.142.287.281a1.23,1.23,0,1,1-1.7,1.778q-.164-.157-.326-.319a17.767,17.767,0,0,0-12.646-5.238H60.253a17.767,17.767,0,0,0-12.646,5.238c-4.162,4.162-9.177,5.959-15.117,5.959A28.424,28.424,0,0,0,39.68,50a1.231,1.231,0,0,1-1.826,1.65A30.852,30.852,0,0,1,31.1,39.537a8.609,8.609,0,0,1,0-17.219ZM91.133,37.047a6.151,6.151,0,0,0-.007-12.238,31.238,31.238,0,0,1,.007,12.238ZM49.17,62.314a23.73,23.73,0,0,0-9.953,11.08A23.272,23.272,0,0,0,37.3,81.539h5.777c.035-2.863.194-5.747.472-8.591a1.23,1.23,0,1,1,2.449.24c-.271,2.765-.425,5.568-.46,8.351H59.578V69.648H54.1A5.324,5.324,0,0,1,49.17,62.314Zm3.11-.4-.545.8A2.86,2.86,0,0,0,54.1,67.187h2.634a17.906,17.906,0,0,1-4.452-5.274Zm2.458-.662a16.72,16.72,0,0,0,6.071,5.759,16.738,16.738,0,0,0,6.074-5.758A31.045,31.045,0,0,1,54.738,61.251ZM69.883,62.71l-.543-.794a17.908,17.908,0,0,1-4.454,5.271h2.635A2.86,2.86,0,0,0,69.883,62.71ZM30.493,37.043a31.005,31.005,0,0,1,0-12.239,6.151,6.151,0,0,0,0,12.239Z" transform="translate(-22.5)"/><path d="M286.609,440.722a1.557,1.557,0,1,1,2.3-.7A1.557,1.557,0,0,1,286.609,440.722Z" transform="translate(-255.249 -369.268)"/><path d="M287.474,478.292a1.558,1.558,0,1,1-1.558,1.545A1.551,1.551,0,0,1,287.474,478.292Z" transform="translate(-255.249 -401.293)"/></svg>