<svg xmlns="http://www.w3.org/2000/svg" width="92" height="60" viewBox="0 0 92 60">
  <path id="plane_1_" data-name="plane (1)" d="M7.834,6.265a1.353,1.353,0,0,0,0,2.706H11.28a1.353,1.353,0,0,0,0-2.706ZM32.028,19.447a4.548,4.548,0,0,0,0,9.1h1.618a4.548,4.548,0,0,0,0-9.1Zm3.453,4.548a1.841,1.841,0,0,1-1.835,1.843H32.028a1.842,1.842,0,0,1,0-3.685h1.618A1.841,1.841,0,0,1,35.481,23.994ZM91.9,27.06c0-.016,0-.032-.006-.049a8.931,8.931,0,0,0-2.97-5.379,29.068,29.068,0,0,0-2.517-1.954h0A29.1,29.1,0,0,0,69.839,14.5H27.2a2.411,2.411,0,0,1-2.05-1.133L20.477,5.952c-.069-.11-.14-.218-.212-.325a1.349,1.349,0,1,0-2.233,1.516c.058.085.113.171.168.257l1.263,2a35.311,35.311,0,0,0-7.649,8.2A25.078,25.078,0,0,0,7.829,27.03a19.879,19.879,0,0,1-.942-3L2.763,5.931A2.635,2.635,0,0,1,5.324,2.706H9.7a10.088,10.088,0,0,1,4.319.978A1.352,1.352,0,0,0,15.179,1.24,12.8,12.8,0,0,0,9.7,0H5.324A5.338,5.338,0,0,0,.135,6.535l4.124,18.1a22.794,22.794,0,0,0,3.528,7.957,1.283,1.283,0,0,0,.157.219,22.528,22.528,0,0,0,18.363,9.466h5.683L29.219,55.628A3.628,3.628,0,0,0,32.759,60h1.724a11,11,0,0,0,8.975-4.6h4.531a3.328,3.328,0,0,0,3.318-3.331v-4.19a3.326,3.326,0,0,0-3.173-3.323l.908-2.282H69.154a1.353,1.353,0,0,0,0-2.706H50.121l1.547-3.883a3.737,3.737,0,0,0-3.458-5.126H38.431a4.956,4.956,0,0,0-4.826,3.94L32.553,39.57H26.308a19.846,19.846,0,0,1-16.043-8.155c-.369-4.923,1.84-9.392,3.787-12.3a33.22,33.22,0,0,1,6.86-7.413l1.965,3.115A5.092,5.092,0,0,0,27.2,17.2H69.839a26.391,26.391,0,0,1,10.642,2.244H72a2.925,2.925,0,0,0-2.681,4.076l.652,1.533a5.715,5.715,0,0,0,5.262,3.487H89.3A6.228,6.228,0,0,1,87.16,33.1a26.5,26.5,0,0,1-12,5.932,1.354,1.354,0,0,0,.27,2.679,1.334,1.334,0,0,0,.272-.028,29.2,29.2,0,0,0,13.219-6.537A8.927,8.927,0,0,0,91.9,27.06ZM48.612,47.881v4.19a.624.624,0,0,1-.622.625h-3.1l2.167-5.441h.931A.624.624,0,0,1,48.612,47.881ZM34.967,41.2s0-.008,0-.012l1.274-6.137a2.246,2.246,0,0,1,2.187-1.786H48.21a1.032,1.032,0,0,1,.955,1.416L46.889,40.4s0,0,0,0L45.9,42.869,34.016,45.787Zm-1.561,7.52,11.267-2.766-2.41,6.05a8.509,8.509,0,0,1-.639,1.278,1.421,1.421,0,0,0-.077.125,8.323,8.323,0,0,1-7.064,3.885H32.76a.907.907,0,0,1-.715-.342.916.916,0,0,1-.187-.772ZM75.231,25.837a3.024,3.024,0,0,1-2.784-1.845l-.652-1.533a.221.221,0,0,1,.2-.307H85.226q1,.716,1.934,1.526a6.218,6.218,0,0,1,1.6,2.158H75.231Zm-16.877-6.39a4.548,4.548,0,0,0,0,9.1h1.618a4.548,4.548,0,0,0,0-9.1Zm3.453,4.548a1.841,1.841,0,0,1-1.835,1.843H58.354a1.842,1.842,0,0,1,0-3.685h1.618A1.841,1.841,0,0,1,61.808,23.994ZM45.191,19.447a4.548,4.548,0,0,0,0,9.1h1.619a4.548,4.548,0,0,0,0-9.1Zm3.453,4.548a1.841,1.841,0,0,1-1.835,1.843H45.191a1.842,1.842,0,0,1,0-3.685h1.619A1.841,1.841,0,0,1,48.644,23.994Zm0,0" fill="#111"/>
</svg>
