<svg xmlns="http://www.w3.org/2000/svg" viewBox="0 0 576 420"><defs><style>.a{fill:currentColor;opacity:0.4;isolation:isolate;}</style></defs><g transform="translate(105.301 81.461)"><path class="a" d="M-104.948,24.433c-1.081,4.415.513,9.006,2.158,13.234,14.29,36.675,34.983,74.014,28.844,113.018-2.982,18.926-12.1,36.129-18.073,54.3s-8.352,39.328,1.486,55.6c12.018,19.882,37.2,25.3,56.621,37.511,12.709,7.985,23.22,19.182,35.451,27.925s27.385,15.123,41.868,11.465c20.833-5.255,32.333-28.595,51.273-38.933,19.408-10.59,43.35-5.862,63.865,2.266s40.316,19.505,62.177,21.836c24.145,2.585,48.028-6.169,72.27-7.567,22.074-1.269,44.113,3.581,66.227,3.027s46.041-8.178,57.789-27.437c15.3-25.165,4.043-58.319,10.116-87.315,5.638-26.939,25.71-48.084,36.018-73.514C481.686,84.086,464.585,27.907,428.377-4.78s-87.94-43.452-135.535-35.914c-21.463,3.405-42.61,10.237-64.314,9.764C170.436-32.185,121.034-84.79,63.092-81.294,26.265-79.058-3.2-54.673-27.564-28.271-48.711-5.35-99.059-12.2-104.948,24.433Z" transform="translate(0 0)"/></g></svg>