<svg height="84" viewBox="0 0 84 84" width="84" xmlns="http://www.w3.org/2000/svg"><path d="m301.646 190a1.646 1.646 0 1 0 1.646 1.646 1.647 1.647 0 0 0 -1.646-1.646z" transform="translate(-250.788 -158.832)"/><path d="m82.077 72.8-21.9-21.9a32.518 32.518 0 0 0 5.447-18.086 32.813 32.813 0 1 0 -32.811 32.811 32.52 32.52 0 0 0 18.087-5.447l6.053 6.053 15.847 15.846a6.562 6.562 0 1 0 9.28-9.28zm-31.95-16.079a29.561 29.561 0 1 1 6.594-6.594 29.674 29.674 0 0 1 -6.594 6.594zm3.442 1.487a32.924 32.924 0 0 0 4.639-4.639l4.655 4.655a39.823 39.823 0 0 1 -4.639 4.639zm26.188 21.549a3.279 3.279 0 0 1 -4.639 0l-14.568-14.568a43.111 43.111 0 0 0 4.639-4.639l14.568 14.568a3.278 3.278 0 0 1 0 4.639z"/><path d="m66.336 40a26.336 26.336 0 1 0 26.336 26.336 26.366 26.366 0 0 0 -26.336-26.336zm0 49.38a23.044 23.044 0 1 1 23.044-23.044 23.07 23.07 0 0 1 -23.044 23.044z" transform="translate(-33.416 -33.416)"/><path d="m210.092 92.686a19.783 19.783 0 0 0 -18.446-12.686 1.646 1.646 0 1 0 0 3.292 16.572 16.572 0 0 1 15.373 10.575 1.646 1.646 0 1 0 3.073-1.181z" transform="translate(-158.86 -66.884)"/></svg>