<svg xmlns="http://www.w3.org/2000/svg" width="83.999" height="84" viewBox="0 0 83.999 84"><path d="M42,72.205a4.255,4.255,0,0,0,4.25-4.25V54.6a4.25,4.25,0,1,0-8.5,0V67.955A4.255,4.255,0,0,0,42,72.205ZM40.211,54.6a1.789,1.789,0,1,1,3.579,0V67.955a1.789,1.789,0,1,1-3.579,0ZM78.989,32.793H77.264V15.52A15.537,15.537,0,0,0,61.744,0H22.255a15.521,15.521,0,0,0-14.7,10.543,1.23,1.23,0,1,0,2.33.791A13.062,13.062,0,0,1,22.255,2.461H61.744A13.073,13.073,0,0,1,74.8,15.52V32.793H70.361V15.52A8.626,8.626,0,0,0,61.744,6.9H22.255a8.627,8.627,0,0,0-8.617,8.617V32.793H9.2v-16.1a1.23,1.23,0,0,0-2.461,0v16.1H5.011A5.017,5.017,0,0,0,0,37.8v3.545a5.017,5.017,0,0,0,5.011,5.011H7.253l5.424,34.032A4.265,4.265,0,0,0,16.907,84H24.67a4.288,4.288,0,0,0,4.284-4.284,1.061,1.061,0,0,1,1.06-1.06H53.985a1.061,1.061,0,0,1,1.061,1.06A4.288,4.288,0,0,0,59.33,84h7.763a4.265,4.265,0,0,0,4.23-3.609l5.423-34.032h2.242A5.016,5.016,0,0,0,84,41.348V37.8A5.016,5.016,0,0,0,78.989,32.793ZM16.1,15.52a6.162,6.162,0,0,1,6.156-6.156H61.744A6.163,6.163,0,0,1,67.9,15.52V32.793H66.392l.015-.015a3.813,3.813,0,0,0,0-5.384L59.05,20.037a3.807,3.807,0,0,0-5.384,0L51.553,22.15a12.3,12.3,0,0,0-22.7,1.587l-1.382-.645a5.088,5.088,0,0,0-6.755,2.458l-3.377,7.242H16.1ZM52.482,24.7l2.924-2.924a1.347,1.347,0,0,1,1.9,0l7.357,7.357a1.348,1.348,0,0,1,0,1.9l-1.755,1.755H51.681a12.275,12.275,0,0,0,.8-8.092ZM50.37,27.6a9.769,9.769,0,0,1-1.484,5.192H32.17A9.841,9.841,0,1,1,50.37,27.6Zm-21,5.192H20.051l2.892-6.2a2.624,2.624,0,0,1,3.484-1.268l1.879.876a12.363,12.363,0,0,0-.083,1.4A12.227,12.227,0,0,0,29.374,32.793ZM68.893,80a1.814,1.814,0,0,1-1.8,1.536H59.33a1.825,1.825,0,0,1-1.823-1.823A3.525,3.525,0,0,0,53.986,76.2H30.014a3.525,3.525,0,0,0-3.521,3.521,1.825,1.825,0,0,1-1.823,1.823H16.907A1.814,1.814,0,0,1,15.108,80L9.746,46.358H74.254ZM81.539,41.348a2.553,2.553,0,0,1-2.55,2.55H5.011a2.553,2.553,0,0,1-2.55-2.55V37.8a2.553,2.553,0,0,1,2.55-2.55H78.989a2.553,2.553,0,0,1,2.55,2.55ZM56.312,72.178a4.249,4.249,0,0,0,3.158-.92,1.23,1.23,0,1,0-1.548-1.912,1.789,1.789,0,0,1-2.9-1.594L56.548,54.4A1.79,1.79,0,1,1,60.1,54.8l-1.138,9.93a1.23,1.23,0,0,0,2.445.28l1.138-9.93a4.251,4.251,0,0,0-8.446-.967l-1.53,13.356A4.255,4.255,0,0,0,56.312,72.178ZM22.982,68.439A4.246,4.246,0,0,0,27.2,72.205a4.307,4.307,0,0,0,.488-.028,4.256,4.256,0,0,0,3.739-4.707L29.9,54.115a4.251,4.251,0,0,0-8.446.968Zm2.488-15.618a1.85,1.85,0,0,1,.205-.012A1.792,1.792,0,0,1,27.452,54.4l1.53,13.356a1.789,1.789,0,1,1-3.556.408L23.9,54.8A1.792,1.792,0,0,1,25.469,52.821Zm0,0"/></svg>