<svg height="60" viewBox="0 0 69.231 60" width="69.231" xmlns="http://www.w3.org/2000/svg"><path d="m14.8 23.438c-8.573 0-14.8 5.747-14.8 13.662v15.945c0 7.918 6.227 13.665 14.8 13.665s14.8-5.747 14.8-13.665v-15.945c.007-7.915-6.219-13.662-14.8-13.662zm12.53 29.607c0 6.6-5.268 11.387-12.526 11.387-6.958 0-12.072-4.4-12.485-10.581 2.56 3.71 7.046 6.026 12.485 6.026v-2.277c-7.258 0-12.526-4.79-12.526-11.387v-1.534c2.552 3.745 7.056 6.089 12.522 6.089s9.973-2.344 12.526-6.089zm-12.53-4.555c-7.255 0-12.523-4.79-12.523-11.39s5.268-11.385 12.523-11.385 12.53 4.785 12.53 11.385-5.268 11.39-12.53 11.39z" transform="translate(0 -23.438)"/><path d="m35.21 51.563c-5.093 0-8.256 2.618-8.256 6.832s3.163 6.832 8.256 6.832 8.256-2.618 8.256-6.832-3.166-6.832-8.256-6.832zm-5.979 6.837a4.081 4.081 0 0 1 .959-2.8l3.2 7.191c-1.912-.342-4.159-1.38-4.159-4.391zm2.89-4.061a9.306 9.306 0 0 1 3.088-.494 8.385 8.385 0 0 1 3.887.86l-5.433 3.1zm3.817 8.591-1.346-3.03 6.157-3.519a4.453 4.453 0 0 1 .438 2.018c.001 3.621-3.247 4.394-5.248 4.526z" transform="translate(-20.406 -44.731)"/><path d="m173.447 126.836.032-.114-.043-.011a5.533 5.533 0 0 0 -5.613-4.836h-18.223a6.172 6.172 0 0 0 -4.221 1.472l-7.63 7.631a5.454 5.454 0 0 0 -1.813 4.562v15.942a5.568 5.568 0 0 0 5.694 5.694h18.22a5.453 5.453 0 0 0 4.562-1.813l7.619-7.619a5.588 5.588 0 0 0 1.484-4.233v-15.943a6.2 6.2 0 0 0 -.068-.732zm-10.29-2.684a13.225 13.225 0 0 0 -2.107 5.812c-.05-.01-.1-.01-.155-.019a11.8 11.8 0 0 0 -2.4-5.793zm-8.164 0c2.455 1.357 3.3 4.116 3.578 5.694h-1.607a26.045 26.045 0 0 0 -4.819-5.694zm-8.061.861a3.4 3.4 0 0 1 1.491-.722 19.508 19.508 0 0 1 5.794 5.555h-12.117zm16.335 26.469a4.206 4.206 0 0 1 -.511 2.317l-.294.294.043.043a3.609 3.609 0 0 1 -2.654.762h-18.22a3.3 3.3 0 0 1 -3.416-3.416v-15.943a3.611 3.611 0 0 1 .762-2.654l.043.043.294-.294a4.2 4.2 0 0 1 2.317-.511h18.22a3.3 3.3 0 0 1 3.416 3.416zm0-20.536a10.706 10.706 0 0 1 2.774-6.794h1.781a3.274 3.274 0 0 1 3.294 2.507 21.085 21.085 0 0 1 -5.572 8.915v-.034a5.594 5.594 0 0 0 -2.276-4.595zm2.277 7.478a18.61 18.61 0 0 0 5.694-6.417v2.252c-.231.9-1.9 6.873-5.694 9.592zm5.694 5.087a3.454 3.454 0 0 1 -.805 2.611l-4.889 4.888v-4.51a14.041 14.041 0 0 0 5.694-6.052z" transform="translate(-104.286 -97.175)"/><path d="m176.721 182.813h-2.277a5.7 5.7 0 0 0 -5.694 5.694v2.277a5.7 5.7 0 0 0 5.694 5.694h2.277a5.7 5.7 0 0 0 5.694-5.694v-2.277a5.7 5.7 0 0 0 -5.694-5.694zm-5.649 8.406a5.327 5.327 0 0 1 3.186 2.963 3.4 3.4 0 0 1 -3.186-2.963zm2.511-1.24a10.41 10.41 0 0 0 -2.554-1.212v-.261a3.419 3.419 0 0 1 3.415-3.417h2.277a3.411 3.411 0 0 1 1.327.268 6.272 6.272 0 0 0 -4.465 4.622zm3.138 4.221h-.121a5.808 5.808 0 0 0 -1.02-2.355 5.624 5.624 0 0 1 .593-2.28 5.523 5.523 0 0 0 3.789 2.234 3.409 3.409 0 0 1 -3.241 2.401zm3.416-4.688a2.623 2.623 0 0 1 -2.217-1.673 4.864 4.864 0 0 1 2.011-.459 3.362 3.362 0 0 1 .206 1.126z" transform="translate(-128.743 -143.31)"/><path d="m37.913 54.306h4.555v2.277h-4.555z"/><path d="m44.635 54.306h2.277v2.277h-2.277z"/><path d="m49.099 54.306h2.277v2.277h-2.277z"/></svg>