<svg xmlns="http://www.w3.org/2000/svg" width="84" height="84" viewBox="0 0 84 84"><path d="M239.5,127.054a3.485,3.485,0,0,0,2.921-1.578,1.244,1.244,0,0,0-.356-1.72,1.266,1.266,0,0,0-1.718.356,1.023,1.023,0,0,1-.847.458,1,1,0,0,1-.848-.458,1.241,1.241,0,1,0-2.073,1.364A3.484,3.484,0,0,0,239.5,127.054Zm0,0" transform="translate(-197.621 -103.288)"/><path d="M125.957,336.281a1.235,1.235,0,0,0-1.227,1.242v2.062a1.227,1.227,0,1,0,2.454,0v-2.062A1.235,1.235,0,0,0,125.957,336.281Zm0,0" transform="translate(-104.272 -281.135)"/><path d="M32.18,336.281a1.235,1.235,0,0,0-1.227,1.242v2.062a1.227,1.227,0,1,0,2.454,0v-2.062A1.235,1.235,0,0,0,32.18,336.281Zm0,0" transform="translate(-25.834 -281.135)"/><path d="M72.2,345.576a1.243,1.243,0,0,0-1.7.356,1.007,1.007,0,0,1-.838.458.987.987,0,0,1-.838-.458,1.218,1.218,0,0,0-1.7-.356,1.251,1.251,0,0,0-.351,1.72,3.432,3.432,0,0,0,5.777,0A1.251,1.251,0,0,0,72.2,345.576Zm0,0" transform="translate(-55.566 -288.729)"/><path d="M467.438,336.281a1.235,1.235,0,0,0-1.227,1.242v2.062a1.227,1.227,0,1,0,2.454,0v-2.062A1.235,1.235,0,0,0,467.438,336.281Zm0,0" transform="translate(-389.784 -281.135)"/><path d="M373.66,336.281a1.235,1.235,0,0,0-1.227,1.242v2.062a1.227,1.227,0,1,0,2.454,0v-2.062A1.235,1.235,0,0,0,373.66,336.281Zm0,0" transform="translate(-311.346 -281.135)"/><path d="M413.681,345.576a1.243,1.243,0,0,0-1.7.356,1.008,1.008,0,0,1-.839.458.988.988,0,0,1-.838-.458,1.217,1.217,0,0,0-1.7-.356,1.252,1.252,0,0,0-.352,1.72,3.432,3.432,0,0,0,5.777,0A1.251,1.251,0,0,0,413.681,345.576Zm0,0" transform="translate(-341.246 -288.729)"/><path d="M14.1,221.82A14.128,14.128,0,0,0,0,235.943v6.11a12.382,12.382,0,0,0,3.04,8.134,8.643,8.643,0,0,0-2.8,6.363,6.892,6.892,0,0,0,1.7,4.64,6.118,6.118,0,0,0,4.628,1.77H21.642a6.118,6.118,0,0,0,4.628-1.77,6.893,6.893,0,0,0,1.7-4.64,8.6,8.6,0,0,0-2.8-6.365,12.38,12.38,0,0,0,3.038-8.132v-6.11A14.128,14.128,0,0,0,14.1,221.82Zm-6.423,4.431a14.2,14.2,0,0,0,3.289,7.431,14.972,14.972,0,0,0,1.074,1.127,23.275,23.275,0,0,1-9.561,2.838v-1.7A11.639,11.639,0,0,1,7.678,226.251ZM25.486,256.57c0,.014.124,3.906-3.843,3.906H6.559c-3.788,0-3.843-3.887-3.843-3.906A6.159,6.159,0,0,1,4.849,251.9a12.332,12.332,0,0,0,7.559,2.582h3.385a12.329,12.329,0,0,0,7.559-2.583A6.129,6.129,0,0,1,25.486,256.57ZM15.794,252H12.409a9.947,9.947,0,0,1-9.928-9.943v-1.908a25,25,0,0,0,11.615-3.7,24.9,24.9,0,0,0,11.625,3.7v1.908A9.946,9.946,0,0,1,15.794,252Zm9.927-14.346c-5.875-.6-10.2-2.473-12.856-5.568a11.786,11.786,0,0,1-2.805-7.049,11.615,11.615,0,0,1,15.661,10.91Zm0,0" transform="translate(0 -185.812)"/><path d="M151.913,41.14h15.25a5.828,5.828,0,0,0,6.188-4.688c2.5-.592,4.321-1.884,4.965-3.375a5.208,5.208,0,0,0-.187-4.547,28.532,28.532,0,0,1-2.82-8.846,2.916,2.916,0,0,0,.2-3.909,15.932,15.932,0,0,1-2.2-5.133c-.005-.026-.011-.052-.018-.078C172.341,7,168.743,0,159.538,0a14.213,14.213,0,0,0-7.231,1.973,1.242,1.242,0,0,0,1.262,2.14,11.761,11.761,0,0,1,11.048-.475,30.82,30.82,0,0,1-4.021,7.378c-3.925,5.236-8.775,7.7-14.416,7.324a.738.738,0,0,1-.625-.424.72.72,0,0,1,.052-.733,18.292,18.292,0,0,0,2.58-6.007,11.713,11.713,0,0,1,1.837-3.836,1.241,1.241,0,1,0-2.006-1.462,14.191,14.191,0,0,0-2.237,4.688c-.007.025-.013.051-.018.077a15.786,15.786,0,0,1-2.2,5.134,3.253,3.253,0,0,0,.41,4.132,28.4,28.4,0,0,1-2.784,8.622A5.208,5.208,0,0,0,141,33.077c.644,1.491,2.083,2.753,4.71,3.317a5.833,5.833,0,0,0,6.2,4.746Zm15.25-2.485h-15.25a3.559,3.559,0,0,1-3.9-3.906,6.126,6.126,0,0,1,2.186-4.692,12.452,12.452,0,0,0,7.627,2.6h3.423a12.45,12.45,0,0,0,7.628-2.6,6.091,6.091,0,0,1,2.185,4.693A3.7,3.7,0,0,1,167.163,38.655Zm8.877-6.564a3.08,3.08,0,0,1-2.545,1.775,8.536,8.536,0,0,0-2.8-5.52,12.525,12.525,0,0,0,2.751-5.352,28.726,28.726,0,0,0,2.5,6.71A2.736,2.736,0,0,1,176.04,32.091Zm-9.28-27.12a11.833,11.833,0,0,1,4.13,6.2,18.283,18.283,0,0,0,2.58,6.007.72.72,0,0,1,.052.733.739.739,0,0,1-.625.424,15.188,15.188,0,0,1-11.626-4.221q.673-.765,1.31-1.612A33.477,33.477,0,0,0,166.759,4.971ZM159.535,15.9a18.61,18.61,0,0,0,6.625,4.047c-.014.074-.022,2.291-.022,2.291a1.24,1.24,0,1,0,2.481,0V20.583a17.573,17.573,0,0,0,2.651.271,10.068,10.068,0,0,1-10.021,9.321h-3.423a10.069,10.069,0,0,1-10.021-9.324,17.48,17.48,0,0,0,2.652-.28v1.664a1.24,1.24,0,1,0,2.481,0s-.009-2.229-.025-2.31A18.781,18.781,0,0,0,159.535,15.9ZM143.279,32.091a2.734,2.734,0,0,1,.1-2.387,28.381,28.381,0,0,0,2.379-6.234,12.534,12.534,0,0,0,2.629,4.878,8.6,8.6,0,0,0-2.8,5.461A3.078,3.078,0,0,1,143.279,32.091Zm0,0" transform="translate(-117.659)"/><path d="M314.884,256.57a6.159,6.159,0,0,1,2.133-4.672,12.329,12.329,0,0,0,7.559,2.582h3.385a12.432,12.432,0,0,0,12.409-12.427v-6.11a14.1,14.1,0,1,0-28.2,0s0,6.2,0,6.25a8.382,8.382,0,0,0-5.812,8.019,8.49,8.49,0,0,0,6.255,8.147,5.783,5.783,0,0,0,6.113,4.6H333.81a6.12,6.12,0,0,0,4.629-1.77,6.893,6.893,0,0,0,1.7-4.64,8.707,8.707,0,0,0-.391-2.565,1.241,1.241,0,1,0-2.369.739,6.189,6.189,0,0,1,.279,1.846c0,.014.1,3.906-3.844,3.906H318.727C314.777,260.476,314.884,256.589,314.884,256.57ZM327.961,252h-3.385a9.946,9.946,0,0,1-9.927-9.943v-2.732a29.758,29.758,0,0,0,4.614.377,18.292,18.292,0,0,0,12.754-4.552,11.573,11.573,0,0,0,5.872,2.632v4.275A9.947,9.947,0,0,1,327.961,252Zm8.047-22.389a11.564,11.564,0,0,1,1.859,5.654,8.987,8.987,0,0,1-4.154-1.932A17.721,17.721,0,0,0,336.008,229.607Zm-9.74-5.3a11.565,11.565,0,0,1,7.937,3.149,15.024,15.024,0,0,1-3.626,5.633c-3.767,3.644-9.124,4.891-15.931,3.715v-.861A11.642,11.642,0,0,1,326.268,224.3Zm-13.816,31.376a5.993,5.993,0,0,1-3.612-5.468,5.914,5.914,0,0,1,3.622-5.48,12.4,12.4,0,0,0,2.745,5.455A8.628,8.628,0,0,0,312.452,255.681Zm0,0" transform="translate(-256.37 -185.812)"/><path d="M20.995,115.155a3.7,3.7,0,0,0,4.365-2.862A12.517,12.517,0,0,1,27.1,108.5a3.527,3.527,0,0,0,.479.669,3.465,3.465,0,0,0,2.658,1.1,3.743,3.743,0,0,0,3.719-3.654c.1-5.4.1-5.45.1-5.511a3.712,3.712,0,0,0-2.789-3.4l-6.156-1.585a3.516,3.516,0,0,0-4.54,2.715,3.645,3.645,0,0,0,1.5,3.993,19.373,19.373,0,0,0-2,2.915,1.241,1.241,0,1,0,2.162,1.218,16.337,16.337,0,0,1,2.871-3.757,1.239,1.239,0,0,0-.732-2.13c-.236-.026-1.68-.422-1.383-1.689a1.119,1.119,0,0,1,1.5-.859l6.157,1.585a1.237,1.237,0,0,1,.927,1.1c0,.38-.06,3.367-.1,5.354a1.241,1.241,0,0,1-1.24,1.218c-1.283-.021-1.252-1.6-1.232-1.868a1.24,1.24,0,0,0-2.085-1.015,14.824,14.824,0,0,0-3.987,6.865,1.246,1.246,0,0,1-1.528.943c-.835-.108-.972-1.122-.9-1.466a1.243,1.243,0,0,0-.952-1.476,1.228,1.228,0,0,0-1.474.954A3.528,3.528,0,0,0,20.995,115.155Zm0,0" transform="translate(-15.02 -80.269)"/><path d="M392.645,105.067a12.493,12.493,0,0,1,2.718,3.166,3.338,3.338,0,0,0-2.907,2.123,3.687,3.687,0,0,0,1.77,4.908c4.86,2.342,4.906,2.358,4.963,2.382a3.361,3.361,0,0,0,4.248-1.125l4-4.947c1.238-1.58,1.518-3.729-.577-5.265a3.8,3.8,0,0,0-4.249-.294A19.8,19.8,0,0,0,397.1,99.1c-.822-.614-3.538-1.767-5.24.8A3.71,3.71,0,0,0,392.645,105.067Zm1.269-3.77a1.152,1.152,0,0,1,1.7-.208,17.362,17.362,0,0,1,5.389,7.532,1.236,1.236,0,0,0,2.239.22,1.469,1.469,0,0,1,2.109-.556,1.249,1.249,0,0,1,.155,1.726l-4,4.947a1.236,1.236,0,0,1-1.387.386c-.342-.162-3.031-1.456-4.82-2.318a1.236,1.236,0,0,1-.59-1.635c.561-1.142,1.972-.475,2.208-.346a1.241,1.241,0,0,0,1.789-1.476,14.793,14.793,0,0,0-4.574-6.488A1.212,1.212,0,0,1,393.915,101.3Zm0,0" transform="translate(-327.139 -82.214)"/><path d="M215.977,427.591a12.461,12.461,0,0,1-4.113-.679c.189-.187,1.522-1.111.866-3.5a3.739,3.739,0,0,0-4.5-2.624c-5.227,1.331-5.273,1.346-5.331,1.366a3.713,3.713,0,0,0-2.536,3.594l.1,6.365a3.587,3.587,0,0,0,3.817,3.665,3.446,3.446,0,0,0,3.446-2.507,19.534,19.534,0,0,0,8.658,1.759c3.505-.276,3.6-3.017,3.5-3.984A3.684,3.684,0,0,0,215.977,427.591Zm.271,4.962a17.523,17.523,0,0,1-8.96-2.308,1.241,1.241,0,0,0-1.855,1.281c.03.173.271,1.773-1.262,1.773a1.166,1.166,0,0,1-1.225-1.223l-.1-6.366a1.236,1.236,0,0,1,.816-1.187c.366-.1,3.257-.833,5.181-1.323a1.248,1.248,0,0,1,1.5.874c.354,1.273-1.207,1.633-1.472,1.684a1.243,1.243,0,0,0-.424,2.282,14.752,14.752,0,0,0,7.666,2.032,1.221,1.221,0,0,1,1.312,1.226A1.13,1.13,0,0,1,216.248,432.553Zm0,0" transform="translate(-167.568 -351.781)"/></svg>