<svg height="84" viewBox="0 0 75 84" width="75" xmlns="http://www.w3.org/2000/svg"><path d="m188.949 102.882a1.239 1.239 0 1 0 -1.546 1.937 35.329 35.329 0 0 1 -38.146 59.056 1.239 1.239 0 1 0 -1.133 2.2 37.806 37.806 0 0 0 40.825-63.2z" transform="translate(-128.185 -86.241)"/><path d="m84.252 14.154a37.824 37.824 0 0 0 -11.62-4.467l-4.21-4.179a3.772 3.772 0 0 0 .4-1.687 3.849 3.849 0 0 0 -7.7 0 3.773 3.773 0 0 0 .4 1.687l-4.2 4.168a37.624 37.624 0 0 0 -19.082 10.224 37.135 37.135 0 0 0 -11.072 26.53 37.516 37.516 0 0 0 16.032 30.675 1.245 1.245 0 0 0 1.727-.3 1.224 1.224 0 0 0 -.3-1.714 35.059 35.059 0 0 1 -14.981-28.661 34.7 34.7 0 0 1 10.346-24.792 35.537 35.537 0 0 1 42.995-5.37 1.244 1.244 0 0 0 1.7-.429 1.225 1.225 0 0 0 -.435-1.685zm-19.282-11.695a1.361 1.361 0 1 1 -1.37 1.361 1.368 1.368 0 0 1 1.37-1.361zm0 6.45q-1.784 0-3.539.163l1.839-1.825a3.865 3.865 0 0 0 3.4 0l1.842 1.828q-1.761-.164-3.542-.166z" transform="translate(-27.168)"/><path d="m123.233 107.868a2.275 2.275 0 0 0 -.271-.274 29.888 29.888 0 0 0 -42.351 0 2.5 2.5 0 0 0 -.271.273 30.619 30.619 0 0 0 0 42.776 2.5 2.5 0 0 0 .271.273 29.888 29.888 0 0 0 42.351 0c.046-.045.233-.221.271-.274a30.619 30.619 0 0 0 0-42.776zm-1.02 40.267-2.722-2.75a1.218 1.218 0 0 0 -1.735 0 1.248 1.248 0 0 0 0 1.752l2.722 2.75a27.456 27.456 0 0 1 -17.465 7.319v-3.9a1.227 1.227 0 1 0 -2.453 0v3.9a27.454 27.454 0 0 1 -17.46-7.319l2.722-2.75a1.248 1.248 0 0 0 0-1.752 1.218 1.218 0 0 0 -1.735 0l-2.722 2.75a28.015 28.015 0 0 1 -7.246-17.64h3.862a1.239 1.239 0 0 0 0-2.478h-3.867a28.016 28.016 0 0 1 7.246-17.64l2.722 2.75a1.231 1.231 0 0 0 1.735 0 1.248 1.248 0 0 0 0-1.752l-2.722-2.75a27.456 27.456 0 0 1 17.465-7.319v3.9a1.227 1.227 0 1 0 2.453 0v-3.9a27.454 27.454 0 0 1 17.465 7.319l-2.722 2.75a1.248 1.248 0 0 0 0 1.752 1.226 1.226 0 0 0 1.735 0l2.722-2.75a28.015 28.015 0 0 1 7.246 17.64h-3.859a1.239 1.239 0 0 0 0 2.478h3.862a28.016 28.016 0 0 1 -7.249 17.64z" transform="translate(-64.287 -83.058)"/><path d="m250.986 196.56-2.565-1.283a2.562 2.562 0 0 0 -3.712 2.294v.043h-5.173a4.031 4.031 0 0 0 -2.578-2.578v-5.173h.042a2.565 2.565 0 0 0 2.294-3.712l-1.282-2.565a2.565 2.565 0 0 0 -4.588 0l-1.282 2.565a2.565 2.565 0 0 0 2.294 3.712h.043v5.173a4.014 4.014 0 1 0 5.056 5.056h5.173v.043a2.569 2.569 0 0 0 2.565 2.567 2.543 2.543 0 0 0 1.146-.272l2.565-1.282a2.565 2.565 0 0 0 0-4.588zm-16.549-9.174a.089.089 0 0 1 -.074-.042.085.085 0 0 1 0-.084l1.282-2.565a.086.086 0 0 1 .156 0l1.282 2.565a.087.087 0 0 1 -.078.126zm2.818 11.468a1.536 1.536 0 1 1 -1.536-1.536 1.538 1.538 0 0 1 1.536 1.536zm12.623.078-2.565 1.282a.087.087 0 0 1 -.126-.078v-2.565a.088.088 0 0 1 .126-.078l2.564 1.282a.087.087 0 0 1 0 .156z" transform="translate(-198.288 -152.349)"/></svg>